<svg id="svg" version="1.1" xmlns="http://www.w3.org/2000/svg" xmlns:xlink="http://www.w3.org/1999/xlink" width="400" height="137.44765263389905" viewBox="0, 0, 400,137.44765263389905"><g id="svgg"><path id="path0" d="M35.667 117.517 C 31.226 118.140,27.515 122.608,27.503 127.344 C 27.477 137.247,40.030 141.188,45.516 133.000 L 46.019 132.250 44.834 132.201 L 43.648 132.152 42.699 133.136 C 37.838 138.179,29.714 134.531,29.776 127.333 C 29.839 120.039,37.941 116.718,42.922 121.945 L 43.927 123.000 44.963 123.000 C 46.219 123.000,46.261 122.866,45.404 121.575 C 43.402 118.558,39.582 116.966,35.667 117.517 M388.726 117.501 C 383.587 118.210,379.760 123.415,380.501 128.688 C 380.736 130.360,380.782 130.503,381.708 132.479 C 383.697 136.723,389.992 138.636,394.607 136.399 C 397.601 134.948,400.000 131.348,400.000 128.307 L 400.000 127.667 394.000 127.667 L 388.000 127.667 388.000 128.583 L 388.000 129.500 392.824 129.500 L 397.649 129.500 397.339 130.400 C 395.605 135.439,389.162 137.088,385.261 133.492 C 381.024 129.587,382.175 121.959,387.287 120.070 C 387.725 119.908,388.182 119.701,388.303 119.608 C 388.424 119.516,389.249 119.436,390.136 119.431 C 392.548 119.417,394.055 120.083,395.910 121.985 L 396.737 122.833 397.869 122.833 C 399.166 122.833,399.216 122.754,398.543 121.759 C 396.348 118.511,392.742 116.947,388.726 117.501 M3.750 117.679 C 1.909 118.227,0.500 120.353,0.500 122.583 C 0.500 125.138,1.503 126.397,4.417 127.496 C 7.876 128.802,8.833 129.672,8.833 131.514 C 8.833 136.220,2.696 136.688,1.922 132.042 L 1.804 131.333 0.879 131.333 L -0.046 131.333 0.040 132.398 C 0.265 135.201,2.173 137.158,4.822 137.304 C 8.771 137.522,10.984 135.127,10.799 130.833 C 10.675 127.944,10.030 127.314,5.417 125.569 C 2.278 124.382,1.530 122.201,3.585 120.226 C 5.424 118.456,8.007 119.482,8.577 122.208 C 8.668 122.643,8.722 122.667,9.609 122.667 L 10.546 122.667 10.434 121.708 C 10.062 118.534,7.026 116.703,3.750 117.679 M63.500 127.417 L 63.500 137.000 64.500 137.000 L 65.500 137.000 65.500 128.395 L 65.500 119.789 68.154 119.866 C 72.341 119.987,73.417 120.815,73.417 123.917 C 73.417 126.423,72.234 127.514,69.383 127.639 C 68.531 127.676,67.835 127.754,67.837 127.812 C 67.842 127.971,70.253 131.936,73.303 136.800 C 73.399 136.953,73.793 137.001,74.649 136.966 L 75.860 136.917 75.405 136.250 C 75.155 135.883,74.764 135.246,74.537 134.833 C 74.310 134.421,73.984 133.928,73.812 133.739 C 73.641 133.550,73.500 133.353,73.500 133.301 C 73.500 133.201,72.745 131.948,71.867 130.592 C 71.202 129.565,71.202 129.562,71.948 129.422 C 75.032 128.843,76.735 124.452,75.149 121.169 C 73.834 118.448,72.362 117.833,67.160 117.833 L 63.500 117.833 63.500 127.417 M93.667 127.417 L 93.667 137.000 98.667 137.000 L 103.667 137.000 103.667 136.000 L 103.667 135.000 99.667 135.000 L 95.667 135.000 95.667 131.667 L 95.667 128.333 99.667 128.333 L 103.667 128.333 103.667 127.333 L 103.667 126.333 99.667 126.333 L 95.667 126.333 95.667 123.083 L 95.667 119.833 99.667 119.833 L 103.667 119.833 103.667 118.833 L 103.667 117.833 98.667 117.833 L 93.667 117.833 93.667 127.417 M122.167 127.417 L 122.167 137.000 127.250 137.000 L 132.333 137.000 132.333 136.000 L 132.333 135.000 128.250 135.000 L 124.167 135.000 124.167 131.667 L 124.167 128.333 128.250 128.333 L 132.333 128.333 132.333 127.333 L 132.333 126.333 128.250 126.333 L 124.167 126.333 124.167 123.086 L 124.167 119.839 128.208 119.795 L 132.250 119.750 132.300 118.792 L 132.350 117.833 127.258 117.833 L 122.167 117.833 122.167 127.417 M150.667 127.417 L 150.667 137.000 151.646 137.000 L 152.625 137.000 152.549 128.792 L 152.473 120.583 153.653 122.385 C 154.302 123.376,154.833 124.225,154.833 124.273 C 154.833 124.321,155.296 125.085,155.863 125.972 C 157.157 127.998,157.863 129.125,158.917 130.841 C 159.821 132.314,160.706 133.726,161.750 135.363 C 162.117 135.938,162.470 136.541,162.536 136.704 C 162.636 136.951,162.865 137.000,163.911 137.000 L 165.167 137.000 165.167 127.417 L 165.167 117.833 164.140 117.833 L 163.114 117.833 163.228 126.000 C 163.291 130.492,163.310 134.167,163.270 134.167 C 163.231 134.167,162.956 133.735,162.660 133.208 C 162.364 132.681,162.072 132.212,162.011 132.167 C 161.950 132.121,161.680 131.708,161.411 131.250 C 161.141 130.792,160.845 130.288,160.752 130.131 C 160.387 129.513,158.101 125.870,157.585 125.083 C 156.689 123.718,155.000 120.988,155.000 120.906 C 155.000 120.864,154.711 120.399,154.358 119.873 C 154.004 119.347,153.576 118.673,153.405 118.375 C 153.100 117.842,153.076 117.833,151.881 117.833 L 150.667 117.833 150.667 127.417 M191.000 127.417 L 191.000 137.000 192.000 137.000 L 193.000 137.000 193.000 133.000 L 193.000 129.000 195.101 129.000 C 197.729 129.000,200.663 128.223,200.667 127.526 C 200.668 127.466,200.900 127.170,201.183 126.868 C 202.726 125.221,202.716 121.813,201.161 119.847 C 199.860 118.200,198.623 117.838,194.292 117.835 L 191.000 117.833 191.000 127.417 M219.500 127.417 L 219.500 137.000 220.500 137.000 L 221.500 137.000 221.500 128.417 L 221.500 119.833 223.528 119.833 C 227.449 119.833,228.964 120.522,229.471 122.537 C 230.238 125.585,228.734 127.497,225.458 127.636 C 223.836 127.705,223.644 127.781,224.047 128.196 C 224.165 128.318,224.482 128.792,224.751 129.250 C 225.021 129.708,225.356 130.271,225.496 130.500 C 225.636 130.729,225.900 131.170,226.083 131.479 C 226.267 131.788,226.779 132.606,227.222 133.297 C 227.665 133.987,228.155 134.784,228.311 135.068 C 228.467 135.351,228.799 135.902,229.049 136.292 L 229.504 137.000 230.664 137.000 C 231.698 137.000,231.811 136.969,231.714 136.708 C 231.580 136.350,230.687 134.842,230.405 134.500 C 230.292 134.362,230.012 133.912,229.783 133.500 C 229.554 133.087,228.919 132.039,228.371 131.169 L 227.375 129.588 228.097 129.405 C 231.980 128.419,233.148 122.647,230.085 119.581 C 228.515 118.008,227.823 117.833,223.186 117.833 L 219.500 117.833 219.500 127.417 M249.667 127.417 L 249.667 137.000 250.750 137.000 L 251.833 137.000 251.833 127.417 L 251.833 117.833 250.750 117.833 L 249.667 117.833 249.667 127.417 M270.167 127.417 L 270.167 137.000 271.180 137.000 L 272.193 137.000 272.091 128.792 C 272.009 122.093,272.029 120.641,272.203 120.898 C 273.144 122.284,273.500 122.838,273.500 122.914 C 273.500 122.963,273.901 123.621,274.392 124.377 C 274.882 125.132,275.381 125.938,275.500 126.167 C 275.619 126.396,275.764 126.621,275.822 126.667 C 275.880 126.712,276.257 127.313,276.659 128.000 C 277.061 128.688,277.564 129.482,277.778 129.766 C 277.992 130.049,278.167 130.340,278.167 130.412 C 278.167 130.485,278.429 130.909,278.750 131.355 C 279.071 131.802,279.333 132.200,279.333 132.239 C 279.333 132.330,280.384 134.054,280.507 134.167 C 280.558 134.212,280.959 134.869,281.399 135.625 L 282.198 137.000 283.433 137.000 L 284.667 137.000 284.667 127.417 L 284.667 117.833 283.655 117.833 L 282.643 117.833 282.760 126.042 L 282.877 134.250 282.283 133.395 C 281.956 132.925,281.552 132.288,281.385 131.979 C 281.020 131.305,280.013 129.699,279.042 128.243 C 278.652 127.659,278.333 127.137,278.333 127.082 C 278.333 127.027,277.921 126.350,277.417 125.576 C 276.912 124.803,276.500 124.120,276.500 124.059 C 276.500 123.998,276.329 123.716,276.120 123.432 C 275.911 123.149,275.300 122.204,274.763 121.333 C 274.226 120.462,273.516 119.322,273.185 118.799 L 272.583 117.848 271.375 117.841 L 270.167 117.833 270.167 127.417 M301.500 118.833 L 301.500 119.833 303.417 119.833 L 305.333 119.833 305.333 128.417 L 305.333 137.000 306.333 137.000 L 307.333 137.000 307.333 128.417 L 307.333 119.833 309.250 119.833 L 311.167 119.833 311.167 118.833 L 311.167 117.833 306.333 117.833 L 301.500 117.833 301.500 118.833 M328.000 127.417 L 328.000 137.000 329.000 137.000 L 330.000 137.000 330.000 127.417 L 330.000 117.833 329.000 117.833 L 328.000 117.833 328.000 127.417 M348.333 127.417 L 348.333 137.000 349.360 137.000 L 350.387 137.000 350.277 128.708 L 350.168 120.417 350.901 121.583 C 351.304 122.225,351.810 123.043,352.025 123.401 C 352.241 123.759,352.904 124.824,353.500 125.767 C 354.096 126.710,354.883 127.974,355.250 128.575 C 355.617 129.177,356.235 130.158,356.625 130.755 C 357.015 131.352,357.333 131.875,357.333 131.917 C 357.333 131.958,357.821 132.746,358.417 133.667 C 359.012 134.588,359.500 135.380,359.500 135.428 C 359.500 135.475,359.579 135.605,359.677 135.715 C 359.774 135.826,359.998 136.160,360.174 136.458 C 360.491 136.993,360.511 137.000,361.748 137.000 L 363.000 137.000 363.000 127.417 L 363.000 117.833 361.931 117.833 L 360.863 117.833 360.937 124.708 C 360.978 128.490,361.032 132.203,361.057 132.960 L 361.103 134.337 360.779 133.793 C 360.601 133.495,360.213 132.875,359.918 132.417 C 359.622 131.958,359.088 131.108,358.732 130.526 C 358.375 129.945,357.783 128.993,357.417 128.411 C 357.050 127.828,356.389 126.766,355.948 126.051 C 355.506 125.335,354.812 124.225,354.406 123.583 C 353.999 122.942,353.352 121.893,352.969 121.252 C 352.586 120.611,352.208 120.011,352.129 119.919 C 352.050 119.826,351.720 119.319,351.397 118.792 L 350.808 117.833 349.570 117.833 L 348.333 117.833 348.333 127.417 M198.158 120.235 C 200.005 120.916,200.746 123.200,199.756 125.154 C 199.099 126.451,198.341 126.737,195.375 126.804 L 193.000 126.858 193.000 123.324 L 193.000 119.790 195.208 119.876 C 196.652 119.932,197.674 120.056,198.158 120.235 " stroke="none" fill="#fcfcfc" fill-rule="evenodd"></path><path id="path1" d="M18.202 0.187 C 18.045 0.245,17.879 0.273,17.833 0.249 C 17.124 -0.111,14.618 2.647,14.350 4.084 C 13.783 7.119,14.230 15.561,15.019 16.714 C 16.606 19.033,17.349 19.200,25.750 19.134 L 32.083 19.083 32.035 56.667 C 31.999 84.187,32.037 94.516,32.175 95.244 C 32.608 97.519,34.137 99.206,36.102 99.576 C 37.086 99.761,46.628 99.690,47.363 99.492 C 48.532 99.178,50.500 97.784,50.500 97.269 C 50.500 97.203,50.651 96.818,50.835 96.414 C 51.167 95.685,51.169 95.379,51.167 57.423 L 51.165 19.167 55.291 19.163 C 69.785 19.150,79.307 19.179,79.667 19.239 C 79.896 19.277,80.608 19.354,81.250 19.409 C 81.892 19.465,82.604 19.537,82.833 19.571 C 83.063 19.604,83.587 19.679,83.999 19.736 C 86.675 20.109,91.333 23.135,91.333 24.501 C 91.333 24.592,91.395 24.667,91.469 24.667 C 91.668 24.667,92.330 25.893,92.952 27.417 C 94.209 30.492,94.461 34.822,93.555 37.750 C 93.250 38.736,92.484 40.393,92.298 40.472 C 92.226 40.503,92.167 40.616,92.167 40.724 C 92.167 40.977,90.823 42.395,89.737 43.287 C 89.005 43.889,86.667 45.255,86.667 45.080 C 86.667 45.046,86.254 45.201,85.750 45.424 C 85.246 45.647,84.833 45.798,84.833 45.760 C 84.833 45.721,84.590 45.763,84.292 45.853 C 83.373 46.129,82.113 46.189,76.417 46.229 C 73.392 46.250,70.743 46.316,70.532 46.376 C 69.848 46.569,68.833 47.060,68.833 47.199 C 68.833 47.273,68.755 47.333,68.659 47.333 C 68.495 47.333,68.137 47.678,67.460 48.487 C 67.300 48.677,67.218 48.833,67.277 48.833 C 67.337 48.833,67.254 48.979,67.093 49.156 C 66.932 49.334,66.850 49.559,66.910 49.656 C 66.970 49.754,66.946 49.833,66.855 49.833 C 65.778 49.833,67.233 55.071,68.580 56.039 C 68.673 56.106,68.685 56.163,68.605 56.164 C 68.526 56.166,68.644 56.410,68.869 56.708 C 69.094 57.006,69.513 57.682,69.801 58.211 C 70.089 58.739,70.405 59.264,70.502 59.377 C 70.920 59.861,72.663 62.771,72.665 62.986 C 72.666 63.116,72.716 63.173,72.775 63.114 C 72.835 63.054,72.976 63.173,73.089 63.378 C 73.312 63.784,73.959 64.912,74.497 65.833 C 74.685 66.154,75.136 66.867,75.501 67.417 C 75.865 67.967,76.210 68.548,76.268 68.708 C 76.325 68.869,76.443 69.000,76.529 69.000 C 76.616 69.000,76.648 69.061,76.602 69.136 C 76.556 69.211,76.683 69.458,76.884 69.686 C 77.085 69.913,77.472 70.526,77.744 71.049 C 78.016 71.572,78.297 72.000,78.369 72.000 C 78.441 72.000,78.500 72.106,78.500 72.236 C 78.500 72.366,78.564 72.497,78.643 72.528 C 78.810 72.592,80.167 74.956,80.167 75.182 C 80.167 75.265,80.242 75.333,80.333 75.333 C 80.425 75.333,80.500 75.405,80.500 75.492 C 80.500 75.579,80.715 75.972,80.978 76.367 C 81.767 77.551,82.286 78.411,82.267 78.504 C 82.258 78.552,82.408 78.761,82.601 78.968 C 82.794 79.175,83.094 79.641,83.268 80.004 C 83.441 80.366,83.640 80.664,83.708 80.665 C 83.777 80.666,83.833 80.774,83.833 80.905 C 83.833 81.036,83.930 81.242,84.047 81.363 C 84.165 81.484,84.478 81.957,84.744 82.414 C 85.009 82.871,85.294 83.321,85.377 83.414 C 85.459 83.507,85.802 84.048,86.138 84.615 C 88.324 88.303,88.929 89.283,89.192 89.566 C 89.355 89.741,89.449 89.948,89.400 90.026 C 89.352 90.105,89.417 90.209,89.544 90.258 C 89.672 90.307,89.878 90.607,90.003 90.924 C 90.127 91.241,90.290 91.500,90.364 91.500 C 90.439 91.500,90.500 91.590,90.500 91.699 C 90.500 91.919,91.342 93.217,91.542 93.306 C 91.610 93.336,91.667 93.456,91.667 93.572 C 91.667 93.688,91.817 93.955,92.000 94.167 C 92.183 94.378,92.333 94.652,92.333 94.776 C 92.333 94.899,92.391 95.000,92.460 95.000 C 92.530 95.000,92.662 95.146,92.752 95.325 C 94.091 97.967,95.432 99.222,97.333 99.609 C 98.744 99.896,109.682 99.656,110.588 99.319 C 113.973 98.057,114.870 94.302,112.575 91.000 C 112.288 90.587,111.803 89.800,111.497 89.250 C 111.190 88.700,110.766 88.018,110.553 87.734 C 110.341 87.451,110.167 87.168,110.167 87.107 C 110.167 86.998,109.714 86.269,108.221 83.974 C 107.825 83.364,107.500 82.788,107.500 82.694 C 107.500 82.601,107.404 82.425,107.287 82.304 C 107.170 82.182,106.722 81.521,106.292 80.833 C 105.861 80.146,105.451 79.508,105.380 79.416 C 105.308 79.324,105.066 78.911,104.842 78.499 C 104.617 78.087,104.371 77.675,104.294 77.583 C 103.963 77.188,102.833 75.333,102.833 75.186 C 102.833 75.097,102.740 74.922,102.625 74.797 C 102.353 74.499,102.036 74.001,101.850 73.576 C 101.768 73.389,101.582 73.137,101.436 73.016 C 101.290 72.895,101.211 72.729,101.262 72.648 C 101.312 72.567,101.283 72.500,101.197 72.500 C 101.111 72.500,100.947 72.275,100.833 72.000 C 100.719 71.725,100.568 71.500,100.498 71.500 C 100.427 71.500,100.326 71.327,100.273 71.115 C 100.220 70.903,99.932 70.397,99.634 69.990 C 99.336 69.583,99.090 69.196,99.087 69.130 C 99.085 69.065,98.966 68.874,98.823 68.706 C 98.679 68.539,98.510 68.293,98.446 68.159 C 98.382 68.026,98.182 67.692,98.001 67.417 C 97.820 67.142,97.592 66.767,97.495 66.583 C 97.205 66.034,96.937 65.605,96.542 65.054 C 96.335 64.767,96.167 64.453,96.167 64.358 C 96.167 64.262,96.035 64.107,95.875 64.013 C 95.715 63.920,95.644 63.841,95.718 63.838 C 95.792 63.836,95.735 63.667,95.593 63.463 C 95.274 63.007,95.265 62.833,95.560 62.833 C 95.911 62.833,97.972 61.861,98.956 61.232 C 99.442 60.921,99.905 60.667,99.985 60.667 C 100.065 60.667,100.174 60.554,100.227 60.417 C 100.280 60.279,100.428 60.167,100.557 60.167 C 101.321 60.167,106.122 55.474,107.719 53.167 C 108.405 52.175,109.462 50.549,109.680 50.149 C 110.337 48.944,111.333 46.948,111.333 46.835 C 111.333 46.765,111.460 46.417,111.614 46.062 C 111.769 45.707,111.881 45.360,111.864 45.292 C 111.847 45.223,111.896 45.167,111.972 45.167 C 112.049 45.167,112.119 45.073,112.129 44.958 C 112.160 44.596,112.255 44.257,112.381 44.055 C 112.449 43.947,112.540 43.647,112.584 43.388 C 112.629 43.129,112.852 42.054,113.080 41.000 C 113.919 37.129,114.140 31.941,113.593 29.000 C 113.551 28.771,113.480 28.276,113.437 27.901 C 113.336 27.026,112.762 24.625,112.433 23.706 C 112.294 23.315,112.185 22.978,112.192 22.956 C 112.418 22.232,108.929 15.174,107.430 13.321 C 107.239 13.086,106.896 12.644,106.667 12.341 C 105.493 10.787,103.512 8.725,102.208 7.702 C 101.544 7.181,101.000 6.697,101.000 6.627 C 101.000 6.557,100.924 6.500,100.831 6.500 C 100.632 6.500,98.638 5.174,98.461 4.923 C 98.394 4.828,98.337 4.818,98.336 4.901 C 98.334 4.984,98.202 4.936,98.042 4.796 C 97.789 4.573,95.730 3.446,95.500 3.404 C 95.394 3.385,94.832 3.147,93.625 2.611 C 93.098 2.377,92.667 2.221,92.667 2.265 C 92.667 2.309,92.528 2.271,92.359 2.180 C 92.190 2.090,91.871 1.981,91.651 1.938 C 91.430 1.895,90.933 1.745,90.545 1.605 C 90.157 1.465,89.520 1.306,89.128 1.251 C 88.737 1.196,88.192 1.086,87.917 1.007 C 87.642 0.927,86.779 0.774,86.000 0.665 C 85.221 0.557,84.396 0.439,84.167 0.402 C 83.938 0.365,82.918 0.291,81.900 0.237 C 79.392 0.103,18.562 0.056,18.202 0.187 M121.949 0.277 C 121.750 0.384,121.530 0.435,121.460 0.392 C 121.391 0.349,121.333 0.393,121.333 0.490 C 121.333 0.587,121.250 0.667,121.148 0.667 C 120.704 0.667,119.325 2.067,118.883 2.967 L 118.417 3.917 118.417 49.917 L 118.417 95.917 118.788 96.667 C 119.424 97.949,120.894 99.245,121.924 99.432 C 122.182 99.479,122.449 99.552,122.518 99.594 C 122.765 99.747,170.918 99.669,171.451 99.515 C 172.094 99.329,173.000 98.812,173.000 98.631 C 173.000 98.559,173.094 98.497,173.208 98.493 C 173.511 98.483,174.674 96.915,174.769 96.389 C 174.814 96.142,174.893 95.872,174.944 95.789 C 174.995 95.706,175.030 93.140,175.021 90.087 L 175.004 84.536 174.580 83.690 C 173.839 82.217,172.920 81.401,171.500 80.958 C 171.271 80.886,163.527 80.831,154.292 80.835 L 137.500 80.841 137.500 70.008 L 137.500 59.174 154.542 59.129 C 171.190 59.084,171.599 59.076,172.250 58.751 C 173.206 58.274,174.316 57.089,174.749 56.083 C 175.530 54.273,175.011 42.333,174.152 42.333 C 174.068 42.333,174.000 42.229,174.000 42.103 C 174.000 41.976,173.823 41.756,173.607 41.614 C 173.390 41.472,173.077 41.220,172.910 41.053 C 172.744 40.886,172.564 40.747,172.512 40.743 C 172.460 40.739,172.171 40.605,171.871 40.445 C 171.571 40.285,171.233 40.166,171.121 40.180 C 171.009 40.194,163.398 40.197,154.208 40.186 L 137.500 40.167 137.500 29.671 L 137.500 19.176 154.375 19.130 C 173.099 19.078,171.697 19.164,173.195 17.978 C 173.863 17.448,174.722 16.266,174.722 15.876 C 174.722 15.761,174.772 15.667,174.833 15.667 C 174.987 15.667,175.085 4.923,174.940 3.917 C 174.790 2.879,173.078 0.667,172.425 0.667 C 172.283 0.667,172.167 0.601,172.167 0.521 C 172.167 0.102,122.725 -0.138,121.949 0.277 M183.882 0.272 C 183.580 0.376,183.332 0.413,183.331 0.355 C 183.329 0.297,183.273 0.325,183.206 0.417 C 183.138 0.509,182.896 0.682,182.667 0.801 C 181.719 1.296,180.743 2.472,180.441 3.483 C 180.103 4.611,180.142 14.595,180.488 15.618 C 181.058 17.302,182.828 18.745,184.532 18.914 C 186.342 19.094,231.950 19.177,232.750 19.001 C 233.208 18.901,233.677 18.809,233.792 18.798 C 233.906 18.787,234.000 18.715,234.000 18.639 C 234.000 18.563,234.112 18.500,234.250 18.500 C 234.494 18.500,235.833 17.313,235.833 17.096 C 235.833 17.036,235.989 16.777,236.178 16.520 C 236.762 15.731,236.836 14.931,236.836 9.417 C 236.837 3.912,236.769 3.256,236.122 2.500 C 235.978 2.332,235.896 2.160,235.938 2.117 C 236.075 1.981,234.609 0.819,233.877 0.484 C 233.023 0.093,184.997 -0.111,183.882 0.272 M246.695 0.333 C 245.282 0.911,243.759 2.504,243.603 3.566 C 243.582 3.708,243.517 3.872,243.458 3.931 C 243.132 4.257,243.326 14.969,243.674 15.859 C 244.109 16.971,245.139 18.045,246.333 18.633 L 247.250 19.083 262.958 19.167 C 271.598 19.212,278.672 19.311,278.679 19.385 C 278.686 19.459,278.499 19.772,278.263 20.082 C 278.026 20.391,277.833 20.691,277.833 20.747 C 277.833 20.803,277.573 21.256,277.256 21.752 C 276.938 22.249,276.487 23.014,276.254 23.453 C 276.021 23.891,275.610 24.625,275.341 25.083 C 275.072 25.542,274.658 26.275,274.420 26.714 C 274.183 27.152,273.735 27.908,273.425 28.393 C 272.746 29.453,272.410 30.047,271.591 31.630 C 271.248 32.292,270.899 32.876,270.815 32.928 C 270.731 32.980,270.504 33.336,270.311 33.720 C 270.118 34.103,269.744 34.754,269.481 35.167 C 269.009 35.906,268.567 36.697,267.805 38.167 C 267.592 38.579,267.360 38.942,267.292 38.972 C 267.223 39.003,267.167 39.104,267.167 39.198 C 267.167 39.292,266.942 39.702,266.667 40.109 C 266.392 40.517,266.167 40.886,266.167 40.930 C 266.167 40.974,265.754 41.687,265.250 42.515 C 264.746 43.342,264.333 44.080,264.333 44.154 C 264.333 44.228,264.176 44.488,263.984 44.732 C 263.792 44.977,263.369 45.680,263.044 46.296 C 262.720 46.913,262.327 47.604,262.173 47.833 C 262.018 48.063,261.794 48.494,261.676 48.792 C 261.557 49.090,261.394 49.333,261.313 49.333 C 261.233 49.333,261.167 49.435,261.167 49.558 C 261.167 49.682,260.940 50.097,260.662 50.480 C 260.385 50.863,259.995 51.511,259.796 51.921 C 259.597 52.331,259.369 52.667,259.290 52.667 C 259.211 52.667,259.187 52.732,259.237 52.812 C 259.286 52.892,259.178 53.128,258.997 53.337 C 258.815 53.547,258.667 53.812,258.667 53.928 C 258.667 54.044,258.610 54.164,258.542 54.194 C 258.473 54.225,258.198 54.663,257.930 55.167 C 257.662 55.671,257.400 56.121,257.347 56.167 C 257.230 56.267,256.937 56.784,256.464 57.721 C 256.271 58.103,255.979 58.567,255.816 58.750 C 255.653 58.933,255.517 59.140,255.513 59.210 C 255.503 59.417,254.986 60.368,254.497 61.083 C 254.246 61.450,254.043 61.815,254.046 61.894 C 254.049 61.973,253.908 62.228,253.734 62.460 C 253.559 62.692,253.414 62.927,253.411 62.983 C 253.408 63.038,253.202 63.401,252.953 63.788 C 252.704 64.176,252.500 64.570,252.500 64.663 C 252.500 64.757,252.437 64.833,252.360 64.833 C 252.283 64.833,252.128 65.040,252.015 65.292 C 251.901 65.544,251.402 66.435,250.904 67.272 C 250.407 68.109,250.000 68.877,250.000 68.980 C 250.000 69.083,249.943 69.167,249.873 69.167 C 249.804 69.167,249.648 69.325,249.528 69.517 C 249.346 69.808,249.347 69.845,249.529 69.735 C 249.686 69.641,249.679 69.690,249.507 69.902 C 249.192 70.289,248.867 70.839,248.733 71.208 C 248.675 71.369,248.557 71.500,248.471 71.500 C 248.384 71.500,248.360 71.575,248.417 71.667 C 248.473 71.758,248.452 71.833,248.369 71.833 C 248.287 71.833,248.040 72.190,247.820 72.625 C 247.601 73.060,247.372 73.454,247.313 73.500 C 247.219 73.573,245.981 75.735,244.656 78.141 C 244.256 78.868,242.676 81.615,242.340 82.167 C 242.257 82.304,241.902 82.942,241.552 83.583 L 240.917 84.750 240.833 89.833 C 240.725 96.442,241.091 97.741,243.419 99.024 C 244.579 99.664,244.589 99.664,272.533 99.667 L 299.816 99.671 300.764 99.294 C 302.104 98.761,303.248 97.558,303.658 96.250 C 304.012 95.121,304.093 84.852,303.753 84.333 C 303.662 84.196,303.581 84.046,303.572 84.000 C 303.508 83.677,303.144 83.025,302.859 82.726 C 302.673 82.530,302.572 82.311,302.635 82.241 C 302.698 82.171,302.660 82.165,302.550 82.228 C 302.435 82.294,302.273 82.199,302.169 82.005 C 302.070 81.819,301.914 81.667,301.824 81.667 C 301.734 81.667,301.357 81.475,300.987 81.242 L 300.314 80.817 282.670 80.829 L 265.026 80.841 265.216 80.337 C 265.321 80.060,265.465 79.833,265.537 79.833 C 265.608 79.833,265.667 79.757,265.667 79.664 C 265.667 79.571,266.004 78.938,266.417 78.259 C 266.829 77.579,267.167 76.976,267.167 76.917 C 267.167 76.859,267.354 76.565,267.583 76.265 C 267.813 75.964,268.000 75.643,268.000 75.551 C 268.000 75.459,268.225 75.072,268.501 74.692 C 268.776 74.312,269.008 73.945,269.016 73.875 C 269.024 73.806,269.305 73.279,269.640 72.704 C 269.976 72.129,270.376 71.426,270.531 71.141 C 270.685 70.857,271.079 70.192,271.406 69.662 C 271.733 69.133,272.000 68.617,272.000 68.517 C 272.000 68.416,272.075 68.333,272.167 68.333 C 272.258 68.333,272.333 68.255,272.333 68.159 C 272.333 68.063,272.578 67.594,272.877 67.117 C 273.175 66.640,273.531 66.025,273.666 65.750 C 273.801 65.475,274.033 65.063,274.182 64.833 C 274.739 63.975,275.005 63.500,274.988 63.395 C 274.979 63.336,275.043 63.241,275.131 63.185 C 275.218 63.129,275.491 62.708,275.738 62.250 C 276.799 60.276,277.412 59.197,277.914 58.417 C 278.209 57.958,278.657 57.208,278.911 56.750 C 279.916 54.934,280.140 54.543,280.779 53.500 C 281.144 52.904,281.659 52.004,281.922 51.500 C 282.185 50.996,282.495 50.468,282.611 50.327 C 282.727 50.185,283.032 49.660,283.289 49.160 C 283.547 48.659,283.945 47.950,284.175 47.583 C 284.405 47.217,284.739 46.635,284.918 46.292 C 285.096 45.948,285.300 45.667,285.371 45.667 C 285.442 45.667,285.500 45.565,285.500 45.440 C 285.500 45.315,285.688 44.936,285.918 44.597 C 286.148 44.259,286.579 43.531,286.876 42.981 C 287.594 41.653,287.686 41.498,288.125 40.887 C 288.331 40.600,288.500 40.270,288.500 40.154 C 288.500 40.038,288.603 39.825,288.729 39.680 C 288.934 39.443,289.362 38.705,290.274 37.010 C 290.444 36.694,290.709 36.293,290.862 36.117 C 291.015 35.942,291.236 35.562,291.353 35.274 C 291.469 34.986,291.613 34.712,291.672 34.667 C 291.770 34.590,291.981 34.234,293.248 32.000 C 293.482 31.587,293.896 30.875,294.169 30.417 C 294.442 29.958,294.758 29.396,294.871 29.167 C 294.984 28.938,295.153 28.695,295.247 28.628 C 295.340 28.560,295.355 28.504,295.280 28.503 C 295.205 28.501,295.318 28.256,295.530 27.958 C 295.941 27.382,296.251 26.848,296.838 25.708 C 297.039 25.319,297.275 25.000,297.362 25.000 C 297.449 25.000,297.477 24.930,297.424 24.845 C 297.371 24.760,297.407 24.641,297.503 24.581 C 297.600 24.521,297.853 24.123,298.066 23.695 C 298.569 22.683,299.369 21.273,299.500 21.167 C 299.556 21.121,299.962 20.415,300.401 19.597 C 300.839 18.780,301.292 18.017,301.406 17.903 C 301.521 17.789,301.710 17.464,301.827 17.181 C 301.945 16.898,302.111 16.667,302.197 16.667 C 302.283 16.667,302.307 16.592,302.250 16.500 C 302.193 16.408,302.226 16.333,302.323 16.333 C 302.421 16.333,302.500 16.240,302.501 16.125 C 302.502 16.010,302.615 15.700,302.753 15.436 C 303.009 14.945,303.146 5.113,302.914 3.935 C 302.597 2.335,300.835 0.507,299.333 0.222 C 298.182 0.003,247.238 0.111,246.695 0.333 M311.708 0.258 C 311.410 0.355,311.076 0.524,310.967 0.633 C 310.857 0.743,310.688 0.836,310.592 0.839 C 310.175 0.851,308.648 2.611,308.590 3.145 C 308.574 3.294,308.471 3.630,308.362 3.890 C 308.209 4.254,308.173 14.996,308.207 50.140 L 308.250 95.917 308.605 96.675 C 308.994 97.507,310.085 98.697,310.796 99.064 C 312.673 100.034,323.478 99.961,324.594 98.972 C 324.783 98.804,324.993 98.667,325.060 98.667 C 325.201 98.667,325.865 97.977,326.428 97.246 C 327.151 96.306,327.181 94.941,326.925 74.583 C 326.866 69.908,326.788 63.496,326.751 60.333 C 326.621 49.050,326.495 39.708,326.438 37.041 C 326.377 34.211,326.456 33.968,327.049 35.143 C 327.309 35.656,327.695 36.324,327.877 36.575 C 328.328 37.195,328.816 38.017,328.911 38.316 C 328.972 38.509,329.089 38.667,329.170 38.667 C 329.251 38.667,329.448 38.948,329.607 39.292 C 329.767 39.635,330.104 40.173,330.357 40.487 C 330.611 40.800,330.779 41.120,330.732 41.196 C 330.684 41.273,330.762 41.381,330.905 41.435 C 331.048 41.490,331.129 41.594,331.084 41.665 C 331.040 41.737,331.115 41.888,331.252 42.002 C 331.388 42.115,331.500 42.279,331.500 42.365 C 331.500 42.549,332.489 44.034,332.712 44.185 C 332.794 44.241,332.855 44.354,332.846 44.435 C 332.838 44.517,332.944 44.715,333.082 44.877 C 333.220 45.038,333.333 45.240,333.333 45.325 C 333.333 45.410,333.652 45.957,334.042 46.541 C 334.431 47.125,334.839 47.748,334.948 47.926 C 336.586 50.608,337.199 51.546,337.416 51.706 C 337.527 51.787,337.527 51.830,337.417 51.833 C 337.317 51.836,337.323 51.888,337.430 51.961 C 337.530 52.028,337.894 52.571,338.240 53.167 C 338.587 53.762,338.955 54.305,339.060 54.372 C 339.164 54.440,339.192 54.496,339.121 54.497 C 339.006 54.500,339.435 55.288,339.667 55.500 C 339.772 55.596,340.377 56.504,340.500 56.750 C 340.802 57.355,342.100 59.427,342.205 59.472 C 342.276 59.503,342.333 59.600,342.333 59.689 C 342.333 59.778,342.734 60.466,343.224 61.217 C 343.713 61.969,344.165 62.696,344.226 62.833 C 344.288 62.971,344.563 63.421,344.837 63.833 C 345.111 64.246,345.381 64.715,345.437 64.875 C 345.493 65.035,345.605 65.167,345.686 65.167 C 345.767 65.167,345.833 65.249,345.833 65.349 C 345.833 65.450,346.235 66.143,346.726 66.891 C 348.240 69.195,349.167 70.672,349.167 70.781 C 349.167 70.838,349.358 71.136,349.592 71.443 C 349.826 71.749,349.970 72.000,349.913 72.000 C 349.856 72.000,349.922 72.112,350.059 72.249 C 350.196 72.386,350.541 72.893,350.826 73.374 C 351.579 74.646,351.740 74.907,351.833 75.000 C 351.982 75.148,352.330 75.740,352.498 76.129 C 352.588 76.338,352.741 76.601,352.838 76.713 C 352.935 76.825,353.255 77.303,353.549 77.776 C 354.152 78.744,354.889 79.920,355.205 80.415 C 357.186 83.519,357.293 83.690,357.436 84.000 C 357.499 84.137,357.802 84.606,358.109 85.042 C 358.416 85.478,358.667 85.885,358.667 85.947 C 358.667 86.008,358.917 86.439,359.223 86.904 C 360.501 88.846,361.333 90.169,361.333 90.257 C 361.333 90.400,363.049 93.068,363.216 93.185 C 363.296 93.241,363.343 93.316,363.319 93.352 C 363.275 93.418,363.843 94.363,364.689 95.633 C 364.952 96.028,365.167 96.421,365.167 96.508 C 365.167 96.595,365.246 96.667,365.343 96.667 C 365.440 96.667,365.473 96.742,365.417 96.833 C 365.360 96.925,365.393 97.000,365.490 97.000 C 365.587 97.000,365.667 97.115,365.667 97.255 C 365.667 97.396,365.779 97.554,365.917 97.606 C 366.054 97.659,366.167 97.775,366.167 97.863 C 366.167 98.276,367.759 99.278,368.777 99.506 C 370.842 99.969,382.074 99.694,382.833 99.162 C 383.063 99.001,383.289 98.880,383.337 98.893 C 383.386 98.906,383.561 98.804,383.728 98.667 C 384.525 98.010,384.919 97.504,385.349 96.583 L 385.816 95.583 385.822 50.000 C 385.828 1.025,385.874 3.835,385.042 2.532 C 384.346 1.444,383.051 0.433,382.134 0.263 C 381.923 0.224,381.750 0.184,381.750 0.174 C 381.750 -0.065,370.457 0.197,369.899 0.449 C 369.031 0.841,368.000 1.658,368.000 1.952 C 368.000 2.076,367.887 2.220,367.750 2.273 C 367.613 2.326,367.500 2.427,367.500 2.497 C 367.500 2.568,367.374 2.916,367.221 3.271 C 366.759 4.338,366.767 3.980,366.917 15.417 C 366.965 19.083,367.038 24.933,367.079 28.417 C 367.228 40.893,367.352 50.136,367.410 53.250 C 367.471 56.473,367.527 62.685,367.510 64.317 L 367.500 65.217 367.000 64.526 C 366.725 64.147,366.500 63.797,366.500 63.750 C 366.500 63.702,366.256 63.306,365.958 62.870 C 365.660 62.434,365.272 61.816,365.096 61.497 C 364.919 61.178,364.708 60.872,364.626 60.817 C 364.545 60.762,364.462 60.612,364.442 60.483 C 364.422 60.355,364.014 59.672,363.536 58.966 C 363.058 58.260,362.667 57.635,362.667 57.578 C 362.667 57.521,362.280 56.899,361.807 56.196 C 361.334 55.492,360.750 54.579,360.511 54.167 C 359.667 52.715,359.409 52.298,358.542 50.981 C 358.060 50.250,357.667 49.581,357.667 49.493 C 357.667 49.405,357.592 49.333,357.500 49.333 C 357.408 49.333,357.333 49.221,357.333 49.083 C 357.333 48.946,357.258 48.833,357.167 48.833 C 357.075 48.833,357.015 48.777,357.032 48.708 C 357.070 48.562,356.315 47.281,355.544 46.184 C 355.247 45.762,354.843 45.117,354.646 44.750 C 354.450 44.383,354.205 44.028,354.103 43.961 C 353.997 43.891,353.988 43.836,354.083 43.833 C 354.194 43.830,354.194 43.787,354.083 43.706 C 353.879 43.556,352.833 41.862,352.833 41.681 C 352.833 41.610,352.685 41.418,352.504 41.254 C 352.323 41.090,352.208 40.900,352.250 40.833 C 352.292 40.766,352.177 40.577,351.996 40.413 C 351.815 40.249,351.667 40.049,351.667 39.967 C 351.667 39.831,351.035 38.857,350.824 38.667 C 350.773 38.621,350.636 38.347,350.519 38.059 C 350.403 37.771,350.182 37.392,350.029 37.217 C 349.875 37.042,349.663 36.753,349.556 36.574 C 349.449 36.396,348.830 35.413,348.181 34.390 C 347.531 33.368,347.000 32.449,347.000 32.349 C 347.000 32.249,346.930 32.167,346.845 32.167 C 346.759 32.167,346.636 31.998,346.571 31.792 C 346.507 31.585,346.138 30.967,345.753 30.417 C 345.367 29.867,344.760 28.929,344.402 28.333 C 344.045 27.738,343.677 27.195,343.585 27.128 C 343.474 27.047,343.473 27.003,343.583 27.000 C 343.686 26.997,343.682 26.948,343.573 26.872 C 343.476 26.805,343.104 26.262,342.747 25.667 C 342.390 25.071,342.001 24.484,341.882 24.363 C 341.764 24.242,341.667 24.062,341.667 23.962 C 341.667 23.863,341.495 23.549,341.285 23.266 C 341.074 22.982,340.569 22.188,340.163 21.500 C 339.756 20.813,339.018 19.653,338.525 18.923 C 338.031 18.192,337.615 17.517,337.601 17.421 C 337.587 17.325,337.444 17.059,337.284 16.831 C 337.123 16.603,336.684 15.929,336.308 15.333 C 335.932 14.737,335.494 14.061,335.336 13.830 C 335.177 13.599,334.994 13.243,334.929 13.038 C 334.864 12.834,334.741 12.667,334.655 12.667 C 334.570 12.667,334.500 12.560,334.500 12.429 C 334.500 12.298,334.403 12.091,334.284 11.970 C 334.166 11.849,333.776 11.262,333.419 10.667 C 333.062 10.071,332.703 9.537,332.621 9.481 C 332.539 9.425,332.467 9.313,332.462 9.231 C 332.457 9.150,332.125 8.587,331.726 7.981 C 331.327 7.375,331.000 6.794,331.000 6.690 C 331.000 6.585,330.934 6.500,330.854 6.500 C 330.773 6.500,330.614 6.275,330.500 6.000 C 330.386 5.725,330.227 5.500,330.146 5.500 C 330.066 5.500,330.000 5.413,330.000 5.307 C 330.000 5.201,329.829 4.883,329.621 4.599 C 329.412 4.315,329.095 3.802,328.916 3.458 C 328.737 3.115,328.533 2.833,328.462 2.833 C 328.391 2.833,328.333 2.739,328.333 2.625 C 328.333 2.435,327.197 1.169,326.643 0.742 C 326.361 0.523,325.867 0.326,325.364 0.230 C 324.492 0.063,312.233 0.089,311.708 0.258 M185.278 40.107 C 185.262 40.119,184.918 40.175,184.513 40.231 C 183.271 40.401,181.167 41.706,181.167 42.306 C 181.167 42.413,181.102 42.500,181.024 42.500 C 180.229 42.500,179.722 54.813,180.479 55.725 C 180.605 55.876,180.658 56.000,180.598 56.000 C 180.428 56.000,180.853 56.733,181.111 56.885 C 181.237 56.960,181.305 57.077,181.263 57.146 C 181.187 57.269,182.586 58.578,182.805 58.589 C 182.867 58.592,183.085 58.689,183.292 58.803 C 183.498 58.918,183.667 58.969,183.667 58.917 C 183.667 58.864,183.810 58.898,183.985 58.992 C 184.477 59.255,231.559 59.350,232.800 59.089 C 233.857 58.868,234.328 58.634,235.076 57.959 C 235.355 57.707,235.640 57.501,235.708 57.501 C 235.777 57.500,235.833 57.397,235.833 57.270 C 235.833 57.144,235.946 56.948,236.083 56.834 C 236.726 56.300,236.852 55.128,236.847 49.701 C 236.842 44.206,236.775 43.587,236.076 42.557 C 235.851 42.225,235.667 41.894,235.667 41.821 C 235.667 41.749,235.511 41.640,235.321 41.579 C 235.131 41.519,235.018 41.427,235.071 41.374 C 235.123 41.321,234.773 41.047,234.291 40.764 L 233.417 40.250 230.500 40.209 C 227.282 40.165,185.322 40.069,185.278 40.107 M184.778 80.778 C 184.763 80.793,184.525 80.835,184.250 80.872 C 182.906 81.051,181.378 82.274,180.657 83.750 L 180.250 84.583 180.250 90.250 C 180.251 95.673,180.266 95.949,180.604 96.667 C 181.271 98.086,182.873 99.398,184.167 99.586 C 185.126 99.726,232.618 99.660,233.083 99.518 C 234.996 98.937,236.417 97.465,236.743 95.729 C 236.841 95.204,236.873 85.070,236.778 84.667 C 236.526 83.602,235.166 81.667,234.670 81.667 C 234.576 81.667,234.500 81.609,234.500 81.539 C 234.500 81.469,234.106 81.263,233.625 81.081 C 232.885 80.801,185.053 80.504,184.778 80.778 " stroke="none" fill="#ec2c8c" fill-rule="evenodd"></path><path id="path2" d="M33.472 0.125 C 41.293 0.149,54.043 0.149,61.805 0.125 C 69.566 0.101,63.167 0.081,47.583 0.081 C 32.000 0.081,25.650 0.101,33.472 0.125 M80.127 0.118 C 80.334 0.158,80.634 0.156,80.794 0.115 C 80.953 0.073,80.783 0.040,80.417 0.042 C 80.050 0.044,79.920 0.078,80.127 0.118 M135.138 0.125 C 141.585 0.149,152.085 0.149,158.471 0.125 C 164.858 0.101,159.583 0.081,146.750 0.081 C 133.917 0.081,128.691 0.101,135.138 0.125 M196.875 0.125 C 203.269 0.149,213.731 0.149,220.125 0.125 C 226.519 0.101,221.287 0.081,208.500 0.081 C 195.713 0.081,190.481 0.101,196.875 0.125 M260.888 0.125 C 267.839 0.149,279.164 0.149,286.055 0.125 C 292.945 0.101,287.258 0.081,273.417 0.081 C 259.575 0.081,253.937 0.101,260.888 0.125 M315.969 0.125 C 317.464 0.152,319.864 0.152,321.302 0.125 C 322.740 0.097,321.517 0.074,318.583 0.074 C 315.650 0.074,314.473 0.097,315.969 0.125 M374.218 0.125 C 375.484 0.153,377.509 0.153,378.718 0.124 C 379.927 0.096,378.892 0.073,376.417 0.073 C 373.942 0.073,372.952 0.096,374.218 0.125 M16.969 0.506 C 16.631 0.684,16.311 0.902,16.257 0.989 C 16.203 1.076,16.498 0.958,16.913 0.726 C 17.327 0.494,17.667 0.274,17.667 0.236 C 17.667 0.139,17.655 0.144,16.969 0.506 M182.643 0.663 L 182.250 0.992 182.707 0.788 C 182.958 0.675,183.165 0.527,183.165 0.458 C 183.167 0.267,183.071 0.305,182.643 0.663 M120.083 1.268 L 119.417 1.865 120.125 1.335 C 120.735 0.879,120.955 0.659,120.792 0.669 C 120.769 0.671,120.450 0.940,120.083 1.268 M384.000 1.195 C 384.000 1.361,384.669 2.053,384.750 1.972 C 384.795 1.927,384.645 1.714,384.416 1.499 C 384.187 1.284,384.000 1.148,384.000 1.195 M367.265 2.809 C 367.081 3.107,366.819 3.909,366.958 3.750 C 367.142 3.539,367.516 2.667,367.423 2.667 C 367.384 2.667,367.313 2.731,367.265 2.809 M180.074 9.417 C 180.074 12.075,180.097 13.139,180.125 11.781 C 180.153 10.424,180.153 8.249,180.125 6.948 C 180.096 5.647,180.073 6.758,180.074 9.417 M175.073 9.583 C 175.073 12.150,175.096 13.177,175.125 11.865 C 175.153 10.553,175.153 8.453,175.125 7.198 C 175.096 5.943,175.073 7.017,175.073 9.583 M236.906 9.583 C 236.906 12.058,236.929 13.094,236.958 11.885 C 236.986 10.676,236.986 8.651,236.958 7.385 C 236.930 6.119,236.906 7.108,236.906 9.583 M303.073 9.667 C 303.073 12.188,303.096 13.219,303.125 11.958 C 303.153 10.698,303.153 8.635,303.125 7.375 C 303.096 6.115,303.073 7.146,303.073 9.667 M366.714 6.083 C 366.716 6.542,366.748 6.709,366.786 6.456 C 366.825 6.203,366.824 5.828,366.784 5.623 C 366.744 5.418,366.713 5.625,366.714 6.083 M99.667 5.727 C 99.667 5.773,99.892 5.971,100.167 6.167 C 100.442 6.362,100.667 6.485,100.667 6.439 C 100.667 6.394,100.442 6.196,100.167 6.000 C 99.892 5.804,99.667 5.681,99.667 5.727 M331.000 6.787 C 331.000 6.884,331.154 7.140,331.343 7.357 L 331.686 7.750 331.394 7.250 C 331.008 6.592,331.000 6.582,331.000 6.787 M105.417 10.833 C 105.692 11.153,105.935 11.447,105.958 11.485 C 105.981 11.524,106.036 11.519,106.081 11.475 C 106.125 11.430,105.882 11.137,105.540 10.822 L 104.917 10.250 105.417 10.833 M335.745 14.489 C 335.884 14.759,336.073 15.026,336.166 15.083 C 336.258 15.140,336.176 14.920,335.984 14.593 C 335.562 13.878,335.390 13.803,335.745 14.489 M14.178 14.597 C 14.185 14.865,14.257 15.233,14.338 15.417 C 14.436 15.639,14.452 15.501,14.386 15.000 C 14.269 14.117,14.162 13.908,14.178 14.597 M236.750 15.000 C 236.687 15.288,236.670 15.559,236.712 15.601 C 236.755 15.643,236.837 15.439,236.896 15.146 C 237.035 14.451,236.900 14.316,236.750 15.000 M108.917 15.667 C 109.059 15.942,109.213 16.167,109.259 16.167 C 109.304 16.167,109.226 15.942,109.083 15.667 C 108.941 15.392,108.787 15.167,108.741 15.167 C 108.696 15.167,108.774 15.392,108.917 15.667 M244.750 17.639 C 245.025 17.945,245.400 18.273,245.583 18.368 C 245.767 18.463,245.842 18.475,245.750 18.395 C 245.658 18.315,245.283 17.987,244.917 17.666 L 244.251 17.083 244.750 17.639 M173.083 18.098 L 172.583 18.528 173.125 18.169 C 173.423 17.972,173.667 17.778,173.667 17.739 C 173.667 17.614,173.596 17.657,173.083 18.098 M338.318 18.637 C 338.419 18.827,338.584 19.032,338.684 19.094 C 338.815 19.175,338.814 19.109,338.682 18.863 C 338.581 18.673,338.416 18.468,338.316 18.406 C 338.185 18.325,338.186 18.391,338.318 18.637 M193.796 19.122 C 194.188 19.157,194.788 19.157,195.129 19.121 C 195.471 19.085,195.150 19.057,194.417 19.057 C 193.683 19.058,193.404 19.087,193.796 19.122 M197.125 19.123 C 197.606 19.157,198.394 19.157,198.875 19.123 C 199.356 19.089,198.963 19.062,198.000 19.062 C 197.037 19.062,196.644 19.089,197.125 19.123 M200.625 19.118 C 200.831 19.157,201.169 19.157,201.375 19.118 C 201.581 19.078,201.412 19.045,201.000 19.045 C 200.588 19.045,200.419 19.078,200.625 19.118 M202.792 19.118 C 202.998 19.157,203.335 19.157,203.542 19.118 C 203.748 19.078,203.579 19.045,203.167 19.045 C 202.754 19.045,202.585 19.078,202.792 19.118 M205.292 19.118 C 205.498 19.157,205.835 19.157,206.042 19.118 C 206.248 19.078,206.079 19.045,205.667 19.045 C 205.254 19.045,205.085 19.078,205.292 19.118 M212.542 19.119 C 212.794 19.158,213.206 19.158,213.458 19.119 C 213.710 19.081,213.504 19.050,213.000 19.050 C 212.496 19.050,212.290 19.081,212.542 19.119 M300.417 19.500 C 300.274 19.775,300.196 20.000,300.241 20.000 C 300.287 20.000,300.441 19.775,300.583 19.500 C 300.726 19.225,300.804 19.000,300.759 19.000 C 300.713 19.000,300.559 19.225,300.417 19.500 M51.249 56.917 C 51.249 77.725,51.268 86.262,51.292 75.888 C 51.315 65.514,51.315 48.489,51.292 38.055 C 51.268 27.621,51.249 36.108,51.249 56.917 M366.887 21.000 C 366.887 21.596,366.917 21.840,366.954 21.542 C 366.991 21.244,366.991 20.756,366.954 20.458 C 366.917 20.160,366.887 20.404,366.887 21.000 M299.116 21.752 C 298.963 22.072,298.873 22.333,298.915 22.333 C 299.029 22.333,299.535 21.313,299.459 21.237 C 299.423 21.200,299.268 21.432,299.116 21.752 M343.106 26.250 C 343.492 26.908,343.500 26.918,343.500 26.713 C 343.500 26.616,343.346 26.360,343.157 26.143 L 342.814 25.750 343.106 26.250 M274.000 27.167 C 273.813 27.533,273.697 27.833,273.743 27.833 C 273.789 27.833,273.980 27.533,274.167 27.167 C 274.354 26.800,274.469 26.500,274.423 26.500 C 274.378 26.500,274.187 26.800,274.000 27.167 M344.145 27.917 C 344.235 28.100,344.431 28.400,344.580 28.583 L 344.852 28.917 344.688 28.583 C 344.598 28.400,344.402 28.100,344.253 27.917 L 343.982 27.583 344.145 27.917 M367.039 29.000 C 367.039 29.321,367.073 29.452,367.115 29.292 C 367.157 29.131,367.157 28.869,367.115 28.708 C 367.073 28.548,367.039 28.679,367.039 29.000 M344.983 29.250 C 345.264 29.794,345.495 30.095,345.494 29.917 C 345.493 29.825,345.339 29.563,345.152 29.333 C 344.925 29.057,344.869 29.029,344.983 29.250 M271.295 31.875 C 270.863 32.541,270.629 33.043,270.799 32.938 C 270.969 32.833,271.711 31.500,271.600 31.500 C 271.566 31.500,271.429 31.669,271.295 31.875 M347.254 32.928 C 347.409 33.209,347.684 33.621,347.865 33.844 L 348.194 34.250 347.913 33.739 C 347.758 33.458,347.483 33.045,347.302 32.822 L 346.972 32.417 347.254 32.928 M367.052 33.583 C 367.053 34.133,367.084 34.338,367.121 34.039 C 367.158 33.739,367.157 33.289,367.119 33.039 C 367.081 32.788,367.051 33.033,367.052 33.583 M269.750 34.500 C 269.608 34.775,269.529 35.000,269.575 35.000 C 269.621 35.000,269.774 34.775,269.917 34.500 C 270.059 34.225,270.138 34.000,270.092 34.000 C 270.046 34.000,269.892 34.225,269.750 34.500 M367.042 35.250 C 367.044 35.617,367.078 35.747,367.118 35.540 C 367.158 35.332,367.156 35.032,367.115 34.873 C 367.073 34.714,367.040 34.883,367.042 35.250 M289.850 37.760 C 289.657 38.086,289.575 38.307,289.668 38.249 C 289.848 38.138,290.389 37.167,290.271 37.167 C 290.232 37.167,290.042 37.434,289.850 37.760 M266.686 39.835 C 266.480 40.201,266.347 40.500,266.390 40.500 C 266.502 40.500,267.191 39.302,267.120 39.231 C 267.086 39.198,266.891 39.470,266.686 39.835 M145.804 40.125 C 150.418 40.150,157.918 40.150,162.471 40.125 C 167.024 40.100,163.250 40.080,154.083 40.080 C 144.917 40.080,141.191 40.100,145.804 40.125 M200.471 40.125 C 206.368 40.149,215.968 40.149,221.805 40.125 C 227.641 40.101,222.817 40.081,211.083 40.081 C 199.350 40.081,194.575 40.101,200.471 40.125 M330.299 40.666 C 330.456 40.940,330.645 41.165,330.720 41.166 C 330.795 41.166,330.696 40.942,330.500 40.667 C 330.042 40.024,329.934 40.024,330.299 40.666 M91.603 41.269 C 91.345 41.592,91.163 41.885,91.198 41.920 C 91.233 41.956,91.473 41.720,91.731 41.397 C 91.988 41.075,92.170 40.781,92.135 40.746 C 92.100 40.711,91.860 40.946,91.603 41.269 M326.553 41.667 C 326.553 42.262,326.584 42.506,326.621 42.208 C 326.658 41.910,326.658 41.423,326.621 41.125 C 326.584 40.827,326.553 41.071,326.553 41.667 M235.917 42.333 C 236.059 42.608,236.213 42.833,236.259 42.833 C 236.304 42.833,236.226 42.608,236.083 42.333 C 235.941 42.058,235.787 41.833,235.741 41.833 C 235.696 41.833,235.774 42.058,235.917 42.333 M326.539 44.833 C 326.539 45.154,326.573 45.285,326.615 45.125 C 326.657 44.965,326.657 44.702,326.615 44.542 C 326.573 44.381,326.539 44.512,326.539 44.833 M180.074 49.667 C 180.074 52.371,180.097 53.477,180.125 52.125 C 180.153 50.773,180.153 48.560,180.125 47.208 C 180.097 45.856,180.074 46.962,180.074 49.667 M175.073 49.667 C 175.073 52.096,175.096 53.090,175.125 51.875 C 175.153 50.660,175.153 48.673,175.125 47.458 C 175.096 46.244,175.073 47.237,175.073 49.667 M236.906 49.667 C 236.906 52.096,236.929 53.090,236.958 51.875 C 236.986 50.660,236.986 48.673,236.958 47.458 C 236.929 46.244,236.906 47.237,236.906 49.667 M367.205 46.000 C 367.205 46.321,367.240 46.452,367.282 46.292 C 367.323 46.131,367.323 45.869,367.282 45.708 C 367.240 45.548,367.205 45.679,367.205 46.000 M367.209 47.750 C 367.211 48.117,367.245 48.247,367.285 48.040 C 367.324 47.832,367.323 47.532,367.281 47.373 C 367.239 47.214,367.207 47.383,367.209 47.750 M261.527 48.757 C 261.248 49.370,261.301 49.501,261.603 48.944 C 261.744 48.683,261.828 48.439,261.790 48.401 C 261.752 48.363,261.634 48.523,261.527 48.757 M260.701 50.178 C 260.493 50.538,260.357 50.833,260.398 50.833 C 260.513 50.833,261.213 49.658,261.141 49.586 C 261.106 49.551,260.908 49.817,260.701 50.178 M338.083 53.167 C 338.226 53.442,338.379 53.667,338.425 53.667 C 338.471 53.667,338.392 53.442,338.250 53.167 C 338.108 52.892,337.954 52.667,337.908 52.667 C 337.862 52.667,337.941 52.892,338.083 53.167 M367.379 54.500 C 367.379 54.913,367.411 55.081,367.451 54.875 C 367.491 54.669,367.491 54.331,367.451 54.125 C 367.411 53.919,367.379 54.087,367.379 54.500 M361.333 55.500 C 361.529 55.775,361.727 56.000,361.773 56.000 C 361.819 56.000,361.696 55.775,361.500 55.500 C 361.304 55.225,361.106 55.000,361.061 55.000 C 361.015 55.000,361.138 55.225,361.333 55.500 M104.114 57.270 C 103.489 57.873,103.006 58.395,103.040 58.429 C 103.074 58.463,103.621 57.968,104.255 57.329 C 105.715 55.857,105.618 55.817,104.114 57.270 M235.116 57.922 C 234.859 58.148,234.714 58.333,234.795 58.333 C 234.876 58.333,235.118 58.146,235.333 57.917 C 235.831 57.386,235.721 57.389,235.116 57.922 M362.673 57.583 C 362.674 57.675,362.827 57.938,363.015 58.167 C 363.241 58.443,363.298 58.471,363.183 58.250 C 362.902 57.706,362.672 57.405,362.673 57.583 M255.956 58.376 L 255.662 58.917 255.998 58.523 C 256.283 58.188,256.436 57.831,256.292 57.834 C 256.269 57.835,256.118 58.079,255.956 58.376 M145.708 59.292 C 150.269 59.316,157.731 59.316,162.292 59.292 C 166.852 59.267,163.121 59.247,154.000 59.247 C 144.879 59.247,141.148 59.267,145.708 59.292 M187.792 59.291 C 189.281 59.319,191.719 59.319,193.208 59.291 C 194.698 59.264,193.479 59.241,190.500 59.241 C 187.521 59.241,186.302 59.264,187.792 59.291 M204.375 59.292 C 206.735 59.318,210.598 59.318,212.958 59.292 C 215.319 59.265,213.387 59.244,208.667 59.244 C 203.946 59.244,202.015 59.265,204.375 59.292 M230.042 59.288 C 230.385 59.324,230.948 59.324,231.292 59.288 C 231.635 59.252,231.354 59.223,230.667 59.223 C 229.979 59.223,229.698 59.252,230.042 59.288 M254.897 60.208 C 254.323 61.182,254.286 61.265,254.578 60.917 C 254.916 60.513,255.208 60.000,255.099 60.000 C 255.055 60.000,254.964 60.094,254.897 60.208 M99.333 61.015 C 99.057 61.241,99.029 61.298,99.250 61.183 C 99.794 60.902,100.095 60.672,99.917 60.673 C 99.825 60.674,99.563 60.827,99.333 61.015 M71.479 61.083 C 71.569 61.267,71.764 61.567,71.914 61.750 L 72.185 62.083 72.021 61.750 C 71.931 61.567,71.736 61.267,71.586 61.083 L 71.315 60.750 71.479 61.083 M343.773 62.250 C 344.158 62.908,344.167 62.918,344.167 62.713 C 344.167 62.616,344.012 62.360,343.823 62.143 L 343.480 61.750 343.773 62.250 M73.241 63.948 C 73.382 64.240,73.581 64.530,73.682 64.593 C 73.906 64.731,73.665 64.256,73.254 63.750 C 73.003 63.441,73.002 63.455,73.241 63.948 M326.885 70.417 C 326.886 70.967,326.917 71.172,326.954 70.872 C 326.991 70.572,326.990 70.122,326.952 69.872 C 326.914 69.622,326.884 69.867,326.885 70.417 M350.006 72.250 C 350.007 72.342,350.161 72.604,350.348 72.833 C 350.575 73.110,350.631 73.138,350.517 72.917 C 350.236 72.373,350.005 72.072,350.006 72.250 M79.004 73.292 C 79.006 73.360,79.160 73.604,79.347 73.833 L 79.687 74.250 79.422 73.708 C 79.171 73.194,78.996 73.019,79.004 73.292 M102.836 75.199 C 102.833 75.350,103.512 76.500,103.604 76.500 C 103.643 76.500,103.564 76.294,103.427 76.042 C 103.087 75.414,102.839 75.060,102.836 75.199 M244.019 79.002 C 243.813 79.368,243.680 79.667,243.723 79.667 C 243.836 79.667,244.525 78.469,244.453 78.398 C 244.420 78.364,244.224 78.636,244.019 79.002 M105.718 79.917 C 105.859 80.192,106.099 80.567,106.252 80.750 C 106.404 80.933,106.360 80.783,106.154 80.417 C 105.700 79.608,105.360 79.218,105.718 79.917 M145.529 80.792 C 149.991 80.816,157.341 80.816,161.862 80.792 C 166.384 80.767,162.733 80.747,153.750 80.747 C 144.767 80.747,141.067 80.767,145.529 80.792 M185.375 80.786 C 185.627 80.824,186.040 80.824,186.292 80.786 C 186.544 80.748,186.338 80.717,185.833 80.717 C 185.329 80.717,185.123 80.748,185.375 80.786 M187.547 80.789 C 187.985 80.824,188.660 80.823,189.047 80.788 C 189.434 80.754,189.075 80.725,188.250 80.726 C 187.425 80.726,187.109 80.755,187.547 80.789 M196.213 80.789 C 196.652 80.824,197.327 80.823,197.713 80.788 C 198.100 80.754,197.742 80.725,196.917 80.726 C 196.092 80.726,195.775 80.755,196.213 80.789 M204.114 80.791 C 205.690 80.819,208.315 80.819,209.948 80.791 C 211.581 80.764,210.292 80.742,207.083 80.742 C 203.875 80.742,202.539 80.764,204.114 80.791 M230.711 80.786 C 230.964 80.825,231.339 80.824,231.544 80.784 C 231.749 80.744,231.542 80.713,231.083 80.714 C 230.625 80.716,230.457 80.748,230.711 80.786 M273.471 80.792 C 278.176 80.816,285.826 80.816,290.471 80.792 C 295.116 80.767,291.267 80.747,281.917 80.747 C 272.567 80.747,268.766 80.767,273.471 80.792 M302.167 81.950 C 302.167 82.143,302.640 82.587,302.733 82.482 C 302.764 82.446,302.650 82.272,302.478 82.096 C 302.307 81.919,302.167 81.854,302.167 81.950 M327.039 82.667 C 327.039 82.987,327.073 83.119,327.115 82.958 C 327.157 82.798,327.157 82.535,327.115 82.375 C 327.073 82.215,327.039 82.346,327.039 82.667 M107.503 82.699 C 107.499 82.850,108.178 84.000,108.271 84.000 C 108.310 84.000,108.230 83.794,108.094 83.542 C 107.754 82.914,107.506 82.560,107.503 82.699 M174.377 83.345 C 174.559 83.713,174.742 83.980,174.783 83.939 C 174.875 83.847,174.391 82.889,174.191 82.765 C 174.111 82.716,174.195 82.977,174.377 83.345 M85.522 83.917 C 86.008 84.739,86.217 84.810,85.779 84.003 C 85.580 83.636,85.363 83.335,85.297 83.335 C 85.232 83.334,85.333 83.596,85.522 83.917 M241.347 83.641 C 241.075 84.150,241.131 84.292,241.434 83.860 C 241.581 83.650,241.662 83.439,241.614 83.392 C 241.566 83.344,241.446 83.456,241.347 83.641 M175.073 90.000 C 175.073 92.521,175.096 93.552,175.125 92.292 C 175.153 91.031,175.153 88.969,175.125 87.708 C 175.096 86.448,175.073 87.479,175.073 90.000 M180.074 90.250 C 180.074 92.908,180.097 93.972,180.125 92.615 C 180.153 91.257,180.153 89.082,180.125 87.781 C 180.096 86.481,180.073 87.592,180.074 90.250 M240.740 90.167 C 240.740 92.779,240.763 93.848,240.791 92.542 C 240.819 91.235,240.819 89.098,240.791 87.792 C 240.763 86.485,240.740 87.554,240.740 90.167 M86.885 86.083 C 87.026 86.358,87.266 86.733,87.418 86.917 C 87.571 87.100,87.527 86.950,87.321 86.583 C 86.867 85.774,86.527 85.384,86.885 86.083 M236.906 90.250 C 236.906 92.633,236.929 93.585,236.958 92.365 C 236.986 91.145,236.986 89.195,236.958 88.032 C 236.929 86.868,236.906 87.867,236.906 90.250 M359.145 86.917 C 359.235 87.100,359.431 87.400,359.580 87.583 L 359.852 87.917 359.688 87.583 C 359.598 87.400,359.402 87.100,359.253 86.917 L 358.982 86.583 359.145 86.917 M110.173 87.083 C 110.174 87.175,110.327 87.438,110.515 87.667 C 110.741 87.943,110.798 87.971,110.683 87.750 C 110.402 87.206,110.172 86.905,110.173 87.083 M360.616 89.346 C 360.781 89.628,361.023 89.947,361.153 90.054 C 361.284 90.162,361.180 89.931,360.923 89.542 C 360.383 88.724,360.171 88.588,360.616 89.346 M112.025 90.176 C 112.234 90.548,112.507 90.937,112.631 91.040 C 112.756 91.143,112.616 90.839,112.320 90.364 C 111.684 89.339,111.484 89.212,112.025 90.176 M236.814 95.130 C 236.759 95.461,236.783 95.617,236.876 95.524 C 236.960 95.440,237.000 95.194,236.966 94.978 C 236.914 94.644,236.890 94.667,236.814 95.130 M303.762 95.762 C 303.701 96.006,303.683 96.238,303.722 96.277 C 303.761 96.317,303.843 96.149,303.905 95.905 C 303.966 95.661,303.984 95.429,303.945 95.389 C 303.906 95.350,303.823 95.518,303.762 95.762 M113.491 96.441 C 113.399 96.683,113.276 96.957,113.219 97.050 C 113.162 97.142,113.194 97.169,113.291 97.109 C 113.475 96.996,113.875 96.000,113.737 96.000 C 113.694 96.000,113.583 96.198,113.491 96.441 M94.297 97.930 C 94.512 98.333,95.001 98.775,94.997 98.562 C 94.996 98.482,94.796 98.229,94.553 98.000 C 94.176 97.643,94.139 97.633,94.297 97.930 M33.583 98.307 C 33.764 98.522,34.064 98.775,34.248 98.869 C 34.602 99.050,34.551 98.995,33.751 98.331 C 33.270 97.931,33.264 97.930,33.583 98.307 M112.097 98.464 L 111.777 98.917 112.222 98.513 C 112.689 98.088,112.747 97.997,112.542 98.005 C 112.473 98.008,112.273 98.214,112.097 98.464 M47.333 99.500 C 46.990 99.610,46.975 99.636,47.250 99.648 C 47.433 99.655,47.696 99.589,47.833 99.500 C 48.125 99.311,47.923 99.311,47.333 99.500 M39.375 99.791 C 40.635 99.820,42.698 99.820,43.958 99.791 C 45.219 99.763,44.188 99.740,41.667 99.740 C 39.146 99.740,38.115 99.763,39.375 99.791 M100.719 99.791 C 102.260 99.819,104.735 99.819,106.219 99.791 C 107.703 99.764,106.442 99.741,103.417 99.741 C 100.392 99.741,99.178 99.764,100.719 99.791 M135.138 99.792 C 141.585 99.816,152.085 99.816,158.471 99.792 C 164.858 99.767,159.583 99.748,146.750 99.748 C 133.917 99.748,128.691 99.767,135.138 99.792 M196.292 99.792 C 202.823 99.816,213.510 99.816,220.042 99.792 C 226.573 99.768,221.229 99.748,208.167 99.748 C 195.104 99.748,189.760 99.768,196.292 99.792 M258.638 99.792 C 266.093 99.816,278.243 99.816,285.638 99.792 C 293.033 99.768,286.933 99.748,272.083 99.748 C 257.233 99.748,251.183 99.768,258.638 99.792 M315.469 99.791 C 316.872 99.819,319.122 99.819,320.469 99.791 C 321.815 99.763,320.667 99.740,317.917 99.741 C 315.167 99.741,314.065 99.763,315.469 99.791 M372.719 99.791 C 374.260 99.819,376.735 99.819,378.219 99.791 C 379.703 99.764,378.442 99.741,375.417 99.741 C 372.392 99.741,371.178 99.764,372.719 99.791 " stroke="none" fill="#ec2c84" fill-rule="evenodd"></path><path id="path3" d="" stroke="none" fill="#f4cc100" fill-rule="evenodd"></path><path id="path4" d="" stroke="none" fill="#f460c8" fill-rule="evenodd"></path></g></svg>