<?xml version="1.0" encoding="UTF-8"?>
<!DOCTYPE svg PUBLIC "-//W3C//DTD SVG 1.1//EN" "http://www.w3.org/Graphics/SVG/1.1/DTD/svg11.dtd">
<svg xmlns="http://www.w3.org/2000/svg" version="1.1" width="845px" height="469px" style="shape-rendering:geometricPrecision; text-rendering:geometricPrecision; image-rendering:optimizeQuality; fill-rule:evenodd; clip-rule:evenodd" xmlns:xlink="http://www.w3.org/1999/xlink">
<g><path style="opacity:0.925" fill="#060606" d="M 485.5,-0.5 C 493.167,-0.5 500.833,-0.5 508.5,-0.5C 614.768,35.5356 720.768,72.7023 826.5,111C 836.104,116.1 842.104,123.934 844.5,134.5C 844.5,142.167 844.5,149.833 844.5,157.5C 840.384,174.644 836.551,191.977 833,209.5C 831.989,213.368 830.489,217.034 828.5,220.5C 832.006,224.515 834.173,229.181 835,234.5C 835.667,256.833 835.667,279.167 835,301.5C 833.894,312.377 829.56,321.71 822,329.5C 823.196,344.8 823.863,360.133 824,375.5C 821.056,383.562 815.223,386.896 806.5,385.5C 710.152,380.566 613.818,375.399 517.5,370C 511.774,367.608 507.274,363.774 504,358.5C 501.076,341.603 498.743,324.603 497,307.5C 496.861,304.555 495.694,302.221 493.5,300.5C 493.335,297.15 493.502,293.817 494,290.5C 498.384,293.217 501.718,296.884 504,301.5C 506.088,319.204 508.421,336.87 511,354.5C 513.596,358.39 517.096,361.223 521.5,363C 618.836,367.948 716.17,372.614 813.5,377C 814.333,376.167 815.167,375.333 816,374.5C 816.167,371 816.333,367.5 816.5,364C 815.515,351.816 814.682,339.649 814,327.5C 821.269,319.961 825.602,310.961 827,300.5C 827.667,278.5 827.667,256.5 827,234.5C 824.306,229.617 821.473,224.783 818.5,220C 820.727,217.436 822.561,214.603 824,211.5C 828.212,193.569 832.212,175.569 836,157.5C 836.667,149.5 836.667,141.5 836,133.5C 833.167,125.333 827.667,119.833 819.5,117C 718.658,80.9414 617.658,45.2747 516.5,10C 496.028,3.06198 477.695,6.56198 461.5,20.5C 460.833,18.5 460.167,16.5 459.5,14.5C 459.5,13.5 459.5,12.5 459.5,11.5C 467.232,5.37188 475.899,1.37188 485.5,-0.5 Z"/></g>
<g><path style="opacity:0.966" fill="#f5f5f5" d="M 459.5,11.5 C 459.5,12.5 459.5,13.5 459.5,14.5C 459.336,17.1873 459.503,19.854 460,22.5C 460.717,21.9558 461.217,21.2891 461.5,20.5C 477.695,6.56198 496.028,3.06198 516.5,10C 617.658,45.2747 718.658,80.9414 819.5,117C 827.667,119.833 833.167,125.333 836,133.5C 836.667,141.5 836.667,149.5 836,157.5C 832.212,175.569 828.212,193.569 824,211.5C 822.561,214.603 820.727,217.436 818.5,220C 821.473,224.783 824.306,229.617 827,234.5C 827.667,256.5 827.667,278.5 827,300.5C 825.602,310.961 821.269,319.961 814,327.5C 814.682,339.649 815.515,351.816 816.5,364C 816.333,367.5 816.167,371 816,374.5C 815.167,375.333 814.333,376.167 813.5,377C 716.17,372.614 618.836,367.948 521.5,363C 517.096,361.223 513.596,358.39 511,354.5C 508.421,336.87 506.088,319.204 504,301.5C 501.718,296.884 498.384,293.217 494,290.5C 493.502,293.817 493.335,297.15 493.5,300.5C 493.667,318.17 493.5,335.836 493,353.5C 492.922,360.274 492.255,366.941 491,373.5C 489.457,375.378 487.624,376.878 485.5,378C 471.5,382.667 457.5,387.333 443.5,392C 437.716,393.509 432.883,392.009 429,387.5C 426.218,391.306 422.384,393.14 417.5,393C 345.117,395.345 272.783,397.178 200.5,398.5C 142.21,399.962 83.8766,400.462 25.5,400C 18.8807,397.705 15.8807,393.039 16.5,386C 20.0258,334.139 23.8591,282.305 28,230.5C 29.4864,226.502 32.3197,224.002 36.5,223C 44.8384,222.111 53.1717,221.278 61.5,220.5C 61.5,185.833 61.5,151.167 61.5,116.5C 45.3166,119.336 29.15,122.336 13,125.5C 6.9616,125.119 2.9616,122.119 1,116.5C 0.830658,104.659 0.330658,92.9928 -0.5,81.5C -0.5,71.8333 -0.5,62.1667 -0.5,52.5C 0.509906,48.6841 2.84324,45.8507 6.5,44C 61.6119,30.597 116.779,17.4303 172,4.5C 201.168,7.19449 230.334,9.86116 259.5,12.5C 323.473,9.52777 387.473,7.3611 451.5,6C 454.597,7.27336 457.264,9.10669 459.5,11.5 Z M 436.5,69.5 C 436.5,69.8333 436.5,70.1667 436.5,70.5C 413.83,71.43 391.163,72.43 368.5,73.5C 368.5,72.5 368.5,71.5 368.5,70.5C 391.167,70.2047 413.834,69.8714 436.5,69.5 Z M 247.5,84.5 C 249.346,84.2222 250.68,84.8888 251.5,86.5C 240.507,87.9915 229.507,88.3248 218.5,87.5C 228.243,86.0114 237.909,85.0114 247.5,84.5 Z M 148.5,89.5 C 149.5,89.5 150.5,89.5 151.5,89.5C 155.363,130.096 159.696,170.596 164.5,211C 152.892,212.677 141.226,213.843 129.5,214.5C 129.359,175.153 130.025,135.819 131.5,96.5C 137.348,94.3361 143.014,92.0027 148.5,89.5 Z M 451.5,118.5 C 455.392,126.608 457.392,135.274 457.5,144.5C 430.503,143.958 403.503,143.625 376.5,143.5C 376.492,140.455 376.159,137.455 375.5,134.5C 396.83,133.948 418.163,133.448 439.5,133C 446.643,130.933 450.643,126.1 451.5,118.5 Z M 221.5,157.5 C 230.266,172.857 238.932,188.357 247.5,204C 240.206,205.164 232.873,205.997 225.5,206.5C 224.254,190.143 222.921,173.809 221.5,157.5 Z M 471.5,157.5 C 474.987,158.483 476.32,160.817 475.5,164.5C 473.412,162.664 472.079,160.331 471.5,157.5 Z M 439.5,206.5 C 441.225,206.843 441.725,207.843 441,209.5C 439.961,208.756 439.461,207.756 439.5,206.5 Z M 365.5,293.5 C 366.833,293.5 368.167,293.5 369.5,293.5C 369.286,295.144 369.62,296.644 370.5,298C 364.747,298.851 359.08,298.517 353.5,297C 357.709,296.119 361.709,294.953 365.5,293.5 Z M 173.5,314.5 C 174.479,322.67 174.479,331.003 173.5,339.5C 150.16,340.156 126.827,340.823 103.5,341.5C 103.682,339.409 103.348,337.409 102.5,335.5C 122.817,333.843 143.151,332.343 163.5,331C 170.237,327.683 173.57,322.183 173.5,314.5 Z"/></g>
<g><path style="opacity:1" fill="#0d0d0d" d="M 311.5,204.5 C 310.957,204.56 310.624,204.893 310.5,205.5C 312.973,206.797 315.307,206.797 317.5,205.5C 329.833,204.561 342.166,203.561 354.5,202.5C 379.489,203.286 404.489,203.786 429.5,204C 431.333,204.5 432.5,205.667 433,207.5C 437.94,221.486 442.773,235.486 447.5,249.5C 447.709,250.922 448.209,252.255 449,253.5C 449.805,250.304 449.638,247.304 448.5,244.5C 447.81,232.504 447.643,220.504 448,208.5C 448.833,207.667 449.667,206.833 450.5,206C 461.833,205.333 473.167,205.333 484.5,206C 486.333,206.5 487.5,207.667 488,209.5C 487.58,262.488 486.913,315.488 486,368.5C 485.5,370.333 484.333,371.5 482.5,372C 467.584,377.308 452.584,381.974 437.5,386C 435.667,385.5 434.5,384.333 434,382.5C 430.363,370.287 427.197,357.954 424.5,345.5C 424.005,343.518 423.505,341.518 423,339.5C 422.192,343.027 422.359,346.36 423.5,349.5C 424.074,360.833 424.241,372.167 424,383.5C 423.167,384.333 422.333,385.167 421.5,386C 354.008,388.396 286.508,390.562 219,392.5C 212.589,392.49 206.256,392.157 200,391.5C 199.25,392.126 198.416,392.626 197.5,393C 140.167,393.667 82.8333,393.667 25.5,393C 23.1465,390.867 22.1465,388.2 22.5,385C 26.2631,334.149 30.0965,283.316 34,232.5C 35.1667,231.333 36.3333,230.167 37.5,229C 46.4918,228.072 55.4918,227.239 64.5,226.5C 66.3328,226.415 67.6661,225.748 68.5,224.5C 68.5,185.833 68.5,147.167 68.5,108.5C 66.901,108.232 65.5676,108.566 64.5,109.5C 47.3724,112.638 30.2057,115.638 13,118.5C 10.9658,118.646 9.29911,117.98 8,116.5C 6.85447,105.593 6.35447,94.5934 6.5,83.5C 6.66667,73.1667 6.83333,62.8333 7,52.5C 7.30762,51.6919 7.80762,51.0253 8.5,50.5C 61.1376,37.6741 113.804,24.8408 166.5,12C 197.946,13.1761 229.28,15.6761 260.5,19.5C 261.308,19.1924 261.975,18.6924 262.5,18C 270.167,17.6667 277.833,17.3333 285.5,17C 340.828,15.0953 396.161,13.762 451.5,13C 454.207,14.8637 455.041,17.3637 454,20.5C 450,33.1667 446,45.8333 442,58.5C 441.535,59.9308 440.701,61.0975 439.5,62C 413.581,63.3084 387.581,64.1418 361.5,64.5C 361.833,69.8333 362.167,75.1667 362.5,80.5C 390.512,79.0995 418.512,77.4328 446.5,75.5C 451.723,74.7652 454.723,76.9319 455.5,82C 451.721,96.8359 447.054,111.336 441.5,125.5C 440.5,126 439.5,126.5 438.5,127C 415.169,127.5 391.836,127.667 368.5,127.5C 369.679,134.777 370.345,142.11 370.5,149.5C 399.831,150.054 429.164,150.554 458.5,151C 459.5,151.833 460.5,152.667 461.5,153.5C 468.667,166.5 475.833,179.5 483,192.5C 484.176,196.26 483.01,199.093 479.5,201C 424.824,199.785 370.157,197.952 315.5,195.5C 313.5,195.833 311.5,196.167 309.5,196.5C 311.055,198.943 311.722,201.61 311.5,204.5 Z M 247.5,84.5 C 237.909,85.0114 228.243,86.0114 218.5,87.5C 229.507,88.3248 240.507,87.9915 251.5,86.5C 250.68,84.8888 249.346,84.2222 247.5,84.5 Z M 148.5,89.5 C 143.014,92.0027 137.348,94.3361 131.5,96.5C 130.025,135.819 129.359,175.153 129.5,214.5C 141.226,213.843 152.892,212.677 164.5,211C 159.696,170.596 155.363,130.096 151.5,89.5C 150.5,89.5 149.5,89.5 148.5,89.5 Z M 221.5,157.5 C 222.921,173.809 224.254,190.143 225.5,206.5C 232.873,205.997 240.206,205.164 247.5,204C 238.932,188.357 230.266,172.857 221.5,157.5 Z M 439.5,206.5 C 439.461,207.756 439.961,208.756 441,209.5C 441.725,207.843 441.225,206.843 439.5,206.5 Z M 365.5,293.5 C 361.709,294.953 357.709,296.119 353.5,297C 359.08,298.517 364.747,298.851 370.5,298C 369.62,296.644 369.286,295.144 369.5,293.5C 368.167,293.5 366.833,293.5 365.5,293.5 Z M 173.5,314.5 C 173.57,322.183 170.237,327.683 163.5,331C 143.151,332.343 122.817,333.843 102.5,335.5C 103.348,337.409 103.682,339.409 103.5,341.5C 126.827,340.823 150.16,340.156 173.5,339.5C 174.479,331.003 174.479,322.67 173.5,314.5 Z"/></g>
<g><path style="opacity:1" fill="#040404" d="M 487.5,13.5 C 503.174,12.6679 518.174,15.5012 532.5,22C 629.401,55.7444 726.068,90.0777 822.5,125C 828.968,129.898 831.635,136.398 830.5,144.5C 830.442,149.547 829.942,154.547 829,159.5C 825.505,175.146 822.171,190.813 819,206.5C 816.888,211.226 814.388,215.726 811.5,220C 813.462,224.756 816.295,228.923 820,232.5C 820.333,233.833 820.667,235.167 821,236.5C 821.922,258.866 821.588,281.199 820,303.5C 818.322,311.859 814.322,318.859 808,324.5C 808.582,340.165 809.415,355.832 810.5,371.5C 717.16,366.866 623.827,362.033 530.5,357C 525.257,357.436 520.757,355.936 517,352.5C 516.667,350.833 516.333,349.167 516,347.5C 514.135,331.277 511.968,315.11 509.5,299C 508.804,297.107 507.97,295.274 507,293.5C 501.231,289.732 496.898,284.732 494,278.5C 494.195,255.17 494.195,231.836 494,208.5C 492.75,205.084 490.583,202.417 487.5,200.5C 488.585,197.227 488.752,193.894 488,190.5C 486.167,186.833 484.333,183.167 482.5,179.5C 489.92,171.171 491.42,161.838 487,151.5C 483.113,147.472 478.613,144.306 473.5,142C 472.299,141.097 471.465,139.931 471,138.5C 470.752,133.437 470.085,128.437 469,123.5C 465.862,115.087 462.529,106.754 459,98.5C 459.877,91.5299 460.543,84.5299 461,77.5C 458.944,72.9354 455.444,70.6021 450.5,70.5C 447.195,41.1705 459.529,22.1705 487.5,13.5 Z"/></g>
<g><path style="opacity:1" fill="#909090" d="M 459.5,14.5 C 460.167,16.5 460.833,18.5 461.5,20.5C 461.217,21.2891 460.717,21.9558 460,22.5C 459.503,19.854 459.336,17.1873 459.5,14.5 Z"/></g>
<g><path style="opacity:1" fill="#fdfdfd" d="M 168.5,17.5 C 169.5,17.5 170.5,17.5 171.5,17.5C 165.759,36.3901 160.425,55.3901 155.5,74.5C 143.091,78.5336 130.758,82.8669 118.5,87.5C 117.432,131.828 116.765,176.161 116.5,220.5C 102.5,221.5 88.5,222.5 74.5,223.5C 74.5,182.833 74.5,142.167 74.5,101.5C 53.7711,104.795 33.1044,108.461 12.5,112.5C 12.1739,93.2571 12.5072,74.0904 13.5,55C 65.3442,42.6212 117.011,30.1212 168.5,17.5 Z"/></g>
<g><path style="opacity:1" fill="#fdfdfd" d="M 304.5,200.5 C 299.833,201.167 295.167,201.833 290.5,202.5C 280.494,202.666 270.494,202.5 260.5,202C 248.539,179.913 236.706,157.746 225,135.5C 223.701,134.02 222.034,133.354 220,133.5C 217.183,134.031 214.35,134.364 211.5,134.5C 210.167,134.5 208.833,134.5 207.5,134.5C 207.19,137.713 207.523,140.713 208.5,143.5C 209.833,164.831 211.166,186.164 212.5,207.5C 200.253,207.822 188.086,207.488 176,206.5C 171.748,163.312 167.248,120.145 162.5,77C 167.314,57.719 172.648,38.5523 178.5,19.5C 204.848,20.167 231.181,22.0003 257.5,25C 272.328,44.3294 286.661,63.9961 300.5,84C 296.918,97.1611 293.418,110.328 290,123.5C 282.282,125.102 274.449,126.102 266.5,126.5C 278.622,151.411 291.289,176.077 304.5,200.5 Z M 247.5,84.5 C 237.909,85.0114 228.243,86.0114 218.5,87.5C 229.507,88.3248 240.507,87.9915 251.5,86.5C 250.68,84.8888 249.346,84.2222 247.5,84.5 Z"/></g>
<g><path style="opacity:1" fill="#fdfdfd" d="M 420.5,18.5 C 429.5,18.5 438.5,18.5 447.5,18.5C 443.833,31.1667 440.167,43.8333 436.5,56.5C 409.161,57.0334 381.827,57.7001 354.5,58.5C 355.28,67.8608 356.28,77.1942 357.5,86.5C 388.17,85.1049 418.837,83.9383 449.5,83C 445.407,95.1135 441.407,107.28 437.5,119.5C 431.862,120.33 426.196,120.83 420.5,121C 400.836,121.5 381.169,121.667 361.5,121.5C 362.613,132.854 363.947,144.188 365.5,155.5C 395.843,155.689 426.177,156.356 456.5,157.5C 463.294,169.587 469.96,181.753 476.5,194C 420.79,193.582 365.124,191.748 309.5,188.5C 298.946,170.055 288.946,151.388 279.5,132.5C 288.263,132.057 296.93,130.89 305.5,129C 301.984,127.932 299.317,125.932 297.5,123C 301.014,108.943 304.681,94.9432 308.5,81C 294.373,62.0355 280.039,43.2021 265.5,24.5C 317.334,22.7668 369.001,20.7668 420.5,18.5 Z"/></g>
<g><path style="opacity:1" fill="#fdfdfd" d="M 530.5,29.5 C 554.361,38.6214 578.361,47.4547 602.5,56C 673.391,79.7412 744.058,104.075 814.5,129C 822.618,132.959 826.284,139.459 825.5,148.5C 825.414,153.212 824.914,157.879 824,162.5C 821.306,174.135 818.806,185.802 816.5,197.5C 812.103,197.575 807.77,197.075 803.5,196C 712.775,173.424 622.442,149.424 532.5,124C 531.35,114.911 531.183,105.745 532,96.5C 534.207,85.4251 535.707,74.2585 536.5,63C 535.659,51.6109 533.659,40.4442 530.5,29.5 Z"/></g>
<g><path style="opacity:0.968" fill="#232323" d="M 436.5,70.5 C 436.5,70.1667 436.5,69.8333 436.5,69.5C 438.781,68.6615 441.115,67.6615 443.5,66.5C 444.429,67.6888 444.762,69.0222 444.5,70.5C 441.833,70.5 439.167,70.5 436.5,70.5 Z"/></g>
<g><path style="opacity:1" fill="#0d0d0d" d="M 205.5,78.5 C 205.5,77.1667 205.5,75.8333 205.5,74.5C 208.059,74.8016 210.393,74.4682 212.5,73.5C 227.17,73.0576 241.837,72.8909 256.5,73C 259.297,76.7988 262.464,80.2988 266,83.5C 265.503,88.8377 264.67,94.171 263.5,99.5C 244.832,100.132 226.165,100.798 207.5,101.5C 206.745,93.8492 206.079,86.1825 205.5,78.5 Z M 247.5,84.5 C 237.909,85.0114 228.243,86.0114 218.5,87.5C 229.507,88.3248 240.507,87.9915 251.5,86.5C 250.68,84.8888 249.346,84.2222 247.5,84.5 Z"/></g>
<g><path style="opacity:1" fill="#979797" d="M 212.5,73.5 C 210.393,74.4682 208.059,74.8016 205.5,74.5C 205.5,75.8333 205.5,77.1667 205.5,78.5C 204.549,77.0813 204.216,75.4147 204.5,73.5C 207.167,73.5 209.833,73.5 212.5,73.5 Z"/></g>
<g><path style="opacity:1" fill="#7d7d7d" d="M 219.5,79.5 C 217.393,80.4682 215.059,80.8016 212.5,80.5C 212.5,83.1667 212.5,85.8333 212.5,88.5C 211.523,85.7131 211.19,82.7131 211.5,79.5C 214.167,79.5 216.833,79.5 219.5,79.5 Z"/></g>
<g><path style="opacity:0.954" fill="#f9f9f9" d="M 212.5,88.5 C 212.5,85.8333 212.5,83.1667 212.5,80.5C 215.059,80.8016 217.393,80.4682 219.5,79.5C 230.849,79.3467 242.182,79.1801 253.5,79C 257.773,82.2212 259.606,86.3878 259,91.5C 243.719,93.4288 228.219,94.7622 212.5,95.5C 212.5,93.1667 212.5,90.8333 212.5,88.5 Z M 247.5,84.5 C 237.909,85.0114 228.243,86.0114 218.5,87.5C 229.507,88.3248 240.507,87.9915 251.5,86.5C 250.68,84.8888 249.346,84.2222 247.5,84.5 Z"/></g>
<g><path style="opacity:0.943" fill="#f6f6f6" d="M 173.5,212.5 C 184.5,213.167 195.5,213.833 206.5,214.5C 197.801,214.419 189.135,214.919 180.5,216C 177.549,216.096 174.882,216.929 172.5,218.5C 170.894,217.923 169.228,217.59 167.5,217.5C 152.811,218.762 138.145,220.095 123.5,221.5C 123.333,178.499 123.5,135.499 124,92.5C 134.919,87.8047 146.086,83.8047 157.5,80.5C 161.339,123.199 165.505,165.866 170,208.5C 170.66,210.324 171.827,211.657 173.5,212.5 Z M 148.5,89.5 C 143.014,92.0027 137.348,94.3361 131.5,96.5C 130.025,135.819 129.359,175.153 129.5,214.5C 141.226,213.843 152.892,212.677 164.5,211C 159.696,170.596 155.363,130.096 151.5,89.5C 150.5,89.5 149.5,89.5 148.5,89.5 Z"/></g>
<g><path style="opacity:0.95" fill="#0b0b0b" d="M 475.5,164.5 C 476.32,160.817 474.987,158.483 471.5,157.5C 468.822,154.668 466.488,151.501 464.5,148C 462.14,146.82 459.807,145.653 457.5,144.5C 457.392,135.274 455.392,126.608 451.5,118.5C 452.149,114.049 453.316,109.716 455,105.5C 461.296,117.081 464.962,129.414 466,142.5C 466.956,143.579 467.789,144.745 468.5,146C 472.833,148.833 477.167,151.667 481.5,154.5C 484.644,161.378 483.81,167.711 479,173.5C 477.259,170.691 476.092,167.691 475.5,164.5 Z"/></g>
<g><path style="opacity:1" fill="#fcfcfc" d="M 528.5,132.5 C 537.07,131.967 545.403,133.134 553.5,136C 609.241,151.602 665.241,166.269 721.5,180C 750.941,187.86 780.274,196.026 809.5,204.5C 807.969,210.434 806.635,216.434 805.5,222.5C 805.997,224.818 806.33,227.152 806.5,229.5C 717.821,210.398 629.155,191.231 540.5,172C 524.073,166.925 517.907,156.092 522,139.5C 523.694,136.642 525.861,134.309 528.5,132.5 Z"/></g>
<g><path style="opacity:1" fill="#808080" d="M 211.5,134.5 C 210.791,135.404 209.791,135.737 208.5,135.5C 208.5,138.167 208.5,140.833 208.5,143.5C 207.523,140.713 207.19,137.713 207.5,134.5C 208.833,134.5 210.167,134.5 211.5,134.5 Z"/></g>
<g><path style="opacity:0.954" fill="#f8f8f8" d="M 214.5,213.5 C 214.5,213.167 214.5,212.833 214.5,212.5C 216.017,212.489 217.184,211.823 218,210.5C 217.735,187.128 216.569,163.794 214.5,140.5C 216.792,140.244 218.959,140.577 221,141.5C 232.739,164.649 245.239,187.315 258.5,209.5C 243.846,210.999 229.18,212.332 214.5,213.5 Z M 221.5,157.5 C 222.921,173.809 224.254,190.143 225.5,206.5C 232.873,205.997 240.206,205.164 247.5,204C 238.932,188.357 230.266,172.857 221.5,157.5 Z"/></g>
<g><path style="opacity:1" fill="#7b7b7b" d="M 64.5,109.5 C 65.5676,108.566 66.901,108.232 68.5,108.5C 68.5,147.167 68.5,185.833 68.5,224.5C 67.5015,186.337 67.1681,148.004 67.5,109.5C 66.5,109.5 65.5,109.5 64.5,109.5 Z"/></g>
<g><path style="opacity:1" fill="#fdfdfd" d="M 536.5,178.5 C 629.04,198.875 721.706,218.875 814.5,238.5C 814.93,259.873 814.43,281.206 813,302.5C 811.374,311.793 805.874,316.959 796.5,318C 788.14,318.554 779.806,318.221 771.5,317C 693.394,307.322 615.227,298.155 537,289.5C 536.167,289.167 535.333,288.833 534.5,288.5C 540.977,277.902 544.311,266.402 544.5,254C 541.297,228.88 538.631,203.713 536.5,178.5 Z"/></g>
<g><path style="opacity:1" fill="#838383" d="M 304.5,200.5 C 305.043,200.56 305.376,200.893 305.5,201.5C 300.544,202.494 295.544,202.827 290.5,202.5C 295.167,201.833 299.833,201.167 304.5,200.5 Z"/></g>
<g><path style="opacity:1" fill="#6b6b6b" d="M 311.5,204.5 C 313.265,205.461 315.265,205.795 317.5,205.5C 315.307,206.797 312.973,206.797 310.5,205.5C 310.624,204.893 310.957,204.56 311.5,204.5 Z"/></g>
<g><path style="opacity:1" fill="#636363" d="M 400.5,209.5 C 388.655,209.172 376.988,209.505 365.5,210.5C 364.957,210.44 364.624,210.107 364.5,209.5C 376.66,208.175 388.66,208.175 400.5,209.5 Z"/></g>
<g><path style="opacity:1" fill="#fdfdfd" d="M 386.5,348.5 C 381.944,350.442 376.944,351.108 371.5,350.5C 313.487,349.237 255.487,347.57 197.5,345.5C 194.038,344.518 190.371,344.185 186.5,344.5C 186.5,341.5 186.5,338.5 186.5,335.5C 187.222,317.499 188.056,299.499 189,281.5C 189.273,279.899 189.773,278.399 190.5,277C 221.126,271.507 251.792,266.34 282.5,261.5C 284.564,261.313 286.564,260.813 288.5,260C 270.662,259.171 252.995,259.338 235.5,260.5C 212.5,260.5 189.5,260.5 166.5,260.5C 169.78,247.877 173.447,235.377 177.5,223C 234.933,217.736 292.433,213.236 350,209.5C 352.5,209.833 355,210.167 357.5,210.5C 362.19,231.114 366.69,251.78 371,272.5C 371.814,274.902 371.647,277.235 370.5,279.5C 334.785,288.512 299.118,297.679 263.5,307C 302.134,308.981 340.801,310.481 379.5,311.5C 381.964,323.82 384.297,336.153 386.5,348.5 Z"/></g>
<g><path style="opacity:1" fill="#fdfdfd" d="M 400.5,209.5 C 409.525,209.168 418.525,209.502 427.5,210.5C 437.235,238.205 447.068,265.871 457,293.5C 456.31,266.499 455.143,239.499 453.5,212.5C 462.833,212.5 472.167,212.5 481.5,212.5C 481.5,220.167 481.5,227.833 481.5,235.5C 480.873,279.164 480.54,322.831 480.5,366.5C 467.313,370.672 454.146,375.005 441,379.5C 440.228,379.355 439.561,379.022 439,378.5C 430.641,343.73 421.974,309.064 413,274.5C 414.658,309.824 416.492,345.158 418.5,380.5C 349.327,382.365 280.161,384.365 211,386.5C 208.5,386.167 206,385.833 203.5,385.5C 197.299,375.097 191.632,364.43 186.5,353.5C 192.31,352.51 198.31,352.177 204.5,352.5C 267.826,354.377 331.16,356.044 394.5,357.5C 384.962,308.477 375.295,259.477 365.5,210.5C 376.988,209.505 388.655,209.172 400.5,209.5 Z"/></g>
<g><path style="opacity:1" fill="#a4a4a4" d="M 453.5,212.5 C 462.986,211.506 472.652,211.173 482.5,211.5C 482.826,219.684 482.492,227.684 481.5,235.5C 481.5,227.833 481.5,220.167 481.5,212.5C 472.167,212.5 462.833,212.5 453.5,212.5 Z"/></g>
<g><path style="opacity:1" fill="#434343" d="M 173.5,212.5 C 187.167,212.5 200.833,212.5 214.5,212.5C 214.5,212.833 214.5,213.167 214.5,213.5C 211.873,214.092 209.206,214.425 206.5,214.5C 195.5,213.833 184.5,213.167 173.5,212.5 Z"/></g>
<g><path style="opacity:1" fill="#f8f8f8" d="M 512.5,212.5 C 514.167,212.5 515.833,212.5 517.5,212.5C 522.168,252.511 527.001,292.511 532,332.5C 532.499,337.823 532.666,343.156 532.5,348.5C 530.143,348.663 527.81,348.497 525.5,348C 524.333,347.5 523.5,346.667 523,345.5C 516.527,301.668 511.694,257.668 508.5,213.5C 510.099,213.768 511.432,213.434 512.5,212.5 Z"/></g>
<g><path style="opacity:1" fill="#5c5c5c" d="M 162.5,224.5 C 164.693,223.203 167.027,223.203 169.5,224.5C 169.376,225.107 169.043,225.44 168.5,225.5C 166.735,224.539 164.735,224.205 162.5,224.5 Z"/></g>
<g><path style="opacity:0.999" fill="#060606" d="M 567.5,222.5 C 576.042,224.186 580.376,229.519 580.5,238.5C 580.305,244.386 578.305,249.553 574.5,254C 569.586,255.982 565.42,254.815 562,250.5C 556.246,239.537 558.079,230.203 567.5,222.5 Z"/></g>
<g><path style="opacity:1" fill="#fcfcfc" d="M 162.5,224.5 C 164.735,224.205 166.735,224.539 168.5,225.5C 164.765,237.041 161.431,248.708 158.5,260.5C 133.157,261.278 107.824,262.278 82.5,263.5C 83.2218,272.495 83.8885,281.495 84.5,290.5C 112.77,287.44 141.103,285.106 169.5,283.5C 166.372,295.552 163.039,307.552 159.5,319.5C 135.825,320.306 112.158,321.306 88.5,322.5C 89.687,332.849 91.0204,343.183 92.5,353.5C 120.847,353.136 149.18,353.136 177.5,353.5C 183.5,364.5 189.5,375.5 195.5,386.5C 150.838,387.5 106.172,387.833 61.5,387.5C 50.8333,387.5 40.1667,387.5 29.5,387.5C 29.5,386.5 29.5,385.5 29.5,384.5C 32.612,334.483 35.9453,284.483 39.5,234.5C 80.5091,231.255 121.509,227.922 162.5,224.5 Z"/></g>
<g><path style="opacity:0.998" fill="#030303" d="M 647.5,237.5 C 653.961,235.818 658.128,238.151 660,244.5C 661.061,250.724 660.394,256.724 658,262.5C 650.465,268.756 645.131,267.089 642,257.5C 640.023,249.668 641.857,243.002 647.5,237.5 Z"/></g>
<g><path style="opacity:1" fill="#828282" d="M 448.5,244.5 C 449.638,247.304 449.805,250.304 449,253.5C 448.209,252.255 447.709,250.922 447.5,249.5C 448.451,248.081 448.784,246.415 448.5,244.5 Z"/></g>
<g><path style="opacity:0.998" fill="#070707" d="M 723.5,249.5 C 728.385,248.856 731.552,250.856 733,255.5C 734.462,262.468 733.129,268.801 729,274.5C 721.205,275.052 717.038,271.219 716.5,263C 716.904,257.354 719.238,252.854 723.5,249.5 Z"/></g>
<g><path style="opacity:1" fill="#a1a1a1" d="M 235.5,260.5 C 252.995,259.338 270.662,259.171 288.5,260C 286.564,260.813 284.564,261.313 282.5,261.5C 267.009,260.504 251.342,260.17 235.5,260.5 Z"/></g>
<g><path style="opacity:0.996" fill="#070707" d="M 792.5,262.5 C 798.048,261.543 801.215,263.877 802,269.5C 803.294,274.708 802.128,279.208 798.5,283C 789.578,283.74 785.745,279.574 787,270.5C 788.273,267.403 790.107,264.736 792.5,262.5 Z"/></g>
<g><path style="opacity:0.959" fill="#f8f8f8" d="M 163.5,266.5 C 177.5,267.167 191.5,267.833 205.5,268.5C 199.14,269.449 192.807,270.616 186.5,272C 184.951,273.214 183.785,274.714 183,276.5C 182.061,299.849 180.894,323.183 179.5,346.5C 152.158,346.328 124.824,346.662 97.5,347.5C 97.3948,341.099 96.7282,334.766 95.5,328.5C 113.173,327.861 130.839,327.028 148.5,326C 153.614,325.891 158.614,325.224 163.5,324C 168.445,310.559 172.779,296.892 176.5,283C 176.262,278.596 173.928,276.429 169.5,276.5C 143.182,279.07 116.849,281.404 90.5,283.5C 89.6864,278.881 89.3531,274.214 89.5,269.5C 113.392,268.956 137.225,267.623 161,265.5C 161.902,265.743 162.735,266.077 163.5,266.5 Z M 173.5,314.5 C 173.57,322.183 170.237,327.683 163.5,331C 143.151,332.343 122.817,333.843 102.5,335.5C 103.348,337.409 103.682,339.409 103.5,341.5C 126.827,340.823 150.16,340.156 173.5,339.5C 174.479,331.003 174.479,322.67 173.5,314.5 Z"/></g>
<g><path style="opacity:1" fill="#757575" d="M 163.5,266.5 C 179.503,266.333 195.503,266.5 211.5,267C 209.564,267.813 207.564,268.313 205.5,268.5C 191.5,267.833 177.5,267.167 163.5,266.5 Z"/></g>
<g><path style="opacity:0.973" fill="#f5f5f5" d="M 322.5,303.5 C 317.833,302.833 313.167,302.167 308.5,301.5C 330.432,295.85 352.432,290.517 374.5,285.5C 375.887,291.77 376.887,298.104 377.5,304.5C 359.168,304.098 340.835,303.764 322.5,303.5 Z M 365.5,293.5 C 361.709,294.953 357.709,296.119 353.5,297C 359.08,298.517 364.747,298.851 370.5,298C 369.62,296.644 369.286,295.144 369.5,293.5C 368.167,293.5 366.833,293.5 365.5,293.5 Z"/></g>
<g><path style="opacity:1" fill="#fcfcfc" d="M 534.5,296.5 C 623.169,306.167 711.836,315.834 800.5,325.5C 801.167,337.833 801.833,350.167 802.5,362.5C 714.494,358.307 626.494,353.973 538.5,349.5C 537.544,331.808 536.211,314.141 534.5,296.5 Z"/></g>
<g><path style="opacity:1" fill="#7c7c7c" d="M 308.5,301.5 C 313.167,302.167 317.833,302.833 322.5,303.5C 317.125,303.828 311.792,303.495 306.5,302.5C 306.957,301.702 307.624,301.369 308.5,301.5 Z"/></g>
<g><path style="opacity:1" fill="#a4a4a4" d="M 186.5,335.5 C 186.5,338.5 186.5,341.5 186.5,344.5C 190.371,344.185 194.038,344.518 197.5,345.5C 193.5,345.5 189.5,345.5 185.5,345.5C 185.187,341.958 185.521,338.625 186.5,335.5 Z"/></g>
<g><path style="opacity:1" fill="#8d8d8d" d="M 424.5,345.5 C 423.566,346.568 423.232,347.901 423.5,349.5C 422.359,346.36 422.192,343.027 423,339.5C 423.505,341.518 424.005,343.518 424.5,345.5 Z"/></g>
<g><path style="opacity:1" fill="#6b6b6b" d="M 386.5,348.5 C 387.404,349.209 387.737,350.209 387.5,351.5C 381.974,351.821 376.64,351.488 371.5,350.5C 376.944,351.108 381.944,350.442 386.5,348.5 Z"/></g>
<g><path style="opacity:1" fill="#7b7b7b" d="M 204.5,352.5 C 198.31,352.177 192.31,352.51 186.5,353.5C 185.957,353.44 185.624,353.107 185.5,352.5C 191.988,351.183 198.322,351.183 204.5,352.5 Z"/></g>
<g><path style="opacity:1" fill="#505050" d="M 29.5,384.5 C 29.5,385.5 29.5,386.5 29.5,387.5C 40.1667,387.5 50.8333,387.5 61.5,387.5C 50.6794,388.495 39.6794,388.828 28.5,388.5C 28.2322,386.901 28.5655,385.568 29.5,384.5 Z"/></g>
<g><path style="opacity:0.779" fill="#fafafa" d="M 531.5,421.5 C 534.167,421.5 536.833,421.5 539.5,421.5C 539.5,424.167 539.5,426.833 539.5,429.5C 536.833,429.5 534.167,429.5 531.5,429.5C 531.5,426.833 531.5,424.167 531.5,421.5 Z"/></g>
<g><path style="opacity:0.78" fill="#f9f9f9" d="M 584.5,421.5 C 587.167,421.5 589.833,421.5 592.5,421.5C 592.5,424.167 592.5,426.833 592.5,429.5C 589.833,429.5 587.167,429.5 584.5,429.5C 584.5,426.833 584.5,424.167 584.5,421.5 Z"/></g>
<g><path style="opacity:0.901" fill="#fdfdfd" d="M 217.5,422.5 C 219.388,424.988 220.055,427.988 219.5,431.5C 221.167,431.5 222.833,431.5 224.5,431.5C 224.5,433.5 224.5,435.5 224.5,437.5C 222.833,437.5 221.167,437.5 219.5,437.5C 219.334,442.179 219.501,446.845 220,451.5C 221.299,451.966 222.799,451.966 224.5,451.5C 224.5,453.833 224.5,456.167 224.5,458.5C 221.15,458.665 217.817,458.498 214.5,458C 214,457.5 213.5,457 213,456.5C 211.63,450.258 211.13,443.925 211.5,437.5C 210.5,437.5 209.5,437.5 208.5,437.5C 208.5,435.5 208.5,433.5 208.5,431.5C 209.5,431.5 210.5,431.5 211.5,431.5C 211.34,429.801 211.506,428.134 212,426.5C 214.167,425.512 216,424.179 217.5,422.5 Z"/></g>
<g><path style="opacity:0.889" fill="#fbfbfb" d="M 90.5,431.5 C 93.1667,431.5 95.8333,431.5 98.5,431.5C 99.3882,436.394 100.888,441.061 103,445.5C 104.012,441.117 105.179,436.784 106.5,432.5C 109.086,431.52 111.753,431.187 114.5,431.5C 115.191,436.598 116.358,441.598 118,446.5C 119.273,441.568 120.773,436.735 122.5,432C 126.486,431.501 130.486,431.334 134.5,431.5C 135.388,436.394 136.888,441.061 139,445.5C 140.012,441.117 141.179,436.784 142.5,432.5C 145.086,431.52 147.753,431.187 150.5,431.5C 151.191,436.598 152.358,441.598 154,446.5C 155.273,441.568 156.773,436.735 158.5,432C 162.486,431.501 166.486,431.334 170.5,431.5C 171.388,436.394 172.888,441.061 175,445.5C 176.012,441.117 177.179,436.784 178.5,432.5C 181.086,431.52 183.753,431.187 186.5,431.5C 187.191,436.598 188.358,441.598 190,446.5C 191.333,441.833 192.667,437.167 194,432.5C 196.381,431.565 198.881,431.232 201.5,431.5C 199.313,440.23 196.813,448.897 194,457.5C 191.333,458.833 188.667,458.833 186,457.5C 185.129,453.016 183.796,448.683 182,444.5C 180.829,449.186 179.662,453.852 178.5,458.5C 175.833,458.5 173.167,458.5 170.5,458.5C 168.945,451.605 166.778,444.938 164,438.5C 161.824,445.027 159.658,451.527 157.5,458C 154.901,458.769 152.401,458.602 150,457.5C 149.129,453.016 147.796,448.683 146,444.5C 144.829,449.186 143.662,453.852 142.5,458.5C 139.833,458.5 137.167,458.5 134.5,458.5C 132.945,451.605 130.778,444.938 128,438.5C 125.824,445.027 123.658,451.527 121.5,458C 118.901,458.769 116.401,458.602 114,457.5C 113.129,453.016 111.796,448.683 110,444.5C 108.829,449.186 107.662,453.852 106.5,458.5C 103.833,458.5 101.167,458.5 98.5,458.5C 95.9887,449.455 93.3221,440.455 90.5,431.5 Z"/></g>
<g><path style="opacity:0.878" fill="#fbfbfb" d="M 237.5,430.5 C 239.042,431.301 240.708,431.634 242.5,431.5C 242.03,435.97 243.03,436.47 245.5,433C 251.86,429.803 257.693,430.636 263,435.5C 263.973,437.392 264.64,439.392 265,441.5C 268.175,432.33 274.342,429.163 283.5,432C 286,433.167 287.833,435 289,437.5C 290.043,440.757 290.543,444.09 290.5,447.5C 284.794,447.171 279.128,447.505 273.5,448.5C 274.278,450.945 275.945,452.278 278.5,452.5C 280.327,450.949 282.494,449.949 285,449.5C 287.034,449.354 288.701,450.02 290,451.5C 293.314,447.352 296.814,443.352 300.5,439.5C 297.232,438.513 293.898,438.18 290.5,438.5C 290.5,436.167 290.5,433.833 290.5,431.5C 297.833,431.5 305.167,431.5 312.5,431.5C 312.663,433.857 312.497,436.19 312,438.5C 308.283,442.762 304.45,446.928 300.5,451C 304.821,451.499 309.154,451.666 313.5,451.5C 313.5,453.833 313.5,456.167 313.5,458.5C 305.5,458.5 297.5,458.5 289.5,458.5C 289.66,456.801 289.494,455.134 289,453.5C 284.509,458.259 279.009,459.759 272.5,458C 268.296,455.762 265.963,452.262 265.5,447.5C 259.794,447.171 254.128,447.505 248.5,448.5C 249.278,450.945 250.945,452.278 253.5,452.5C 255.327,450.949 257.494,449.949 260,449.5C 262.271,449.174 263.771,450.008 264.5,452C 263.179,454.654 261.179,456.654 258.5,458C 244.514,460.015 238.347,453.848 240,439.5C 237.67,437.968 235.67,438.302 234,440.5C 233.501,446.491 233.334,452.491 233.5,458.5C 230.833,458.5 228.167,458.5 225.5,458.5C 225.5,449.5 225.5,440.5 225.5,431.5C 228.394,431.042 230.894,431.709 233,433.5C 234.409,432.219 235.909,431.219 237.5,430.5 Z M 250.5,437.5 C 254.145,436.68 256.478,438.013 257.5,441.5C 254.5,442.833 251.5,442.833 248.5,441.5C 249.18,440.14 249.847,438.807 250.5,437.5 Z M 275.5,437.5 C 279.145,436.68 281.478,438.013 282.5,441.5C 279.5,442.833 276.5,442.833 273.5,441.5C 274.18,440.14 274.847,438.807 275.5,437.5 Z"/></g>
<g><path style="opacity:0.875" fill="#fcfcfc" d="M 329.5,430.5 C 332.711,431.013 335.544,432.346 338,434.5C 339.321,442.439 339.821,450.439 339.5,458.5C 336.833,458.5 334.167,458.5 331.5,458.5C 331.666,452.491 331.499,446.491 331,440.5C 329.695,437.694 327.528,436.86 324.5,438C 323.874,438.75 323.374,439.584 323,440.5C 322.501,446.491 322.334,452.491 322.5,458.5C 319.833,458.5 317.167,458.5 314.5,458.5C 314.5,449.5 314.5,440.5 314.5,431.5C 316.833,431.5 319.167,431.5 321.5,431.5C 321.443,435.133 322.443,435.3 324.5,432C 326.382,431.802 328.048,431.302 329.5,430.5 Z"/></g>
<g><path style="opacity:0.897" fill="#fafafa" d="M 350.5,430.5 C 356.993,429.83 361.66,432.33 364.5,438C 360.022,440.171 355.856,439.671 352,436.5C 350.605,436.78 349.438,437.447 348.5,438.5C 353.965,440.159 359.132,442.492 364,445.5C 365.658,448.924 365.325,452.258 363,455.5C 361.829,456.893 360.329,457.727 358.5,458C 354.5,458.667 350.5,458.667 346.5,458C 342.677,456.359 340.677,453.526 340.5,449.5C 342.792,449.756 344.959,449.423 347,448.5C 349.609,452.735 353.109,453.568 357.5,451C 353.392,448.884 349.059,447.217 344.5,446C 341.353,442.691 340.687,438.858 342.5,434.5C 344.84,432.321 347.507,430.987 350.5,430.5 Z"/></g>
<g><path style="opacity:0.892" fill="#fafafa" d="M 377.5,430.5 C 382.829,430.249 386.996,432.249 390,436.5C 390.49,437.793 390.657,439.127 390.5,440.5C 388.409,440.318 386.409,440.652 384.5,441.5C 383.155,440.653 382.155,439.487 381.5,438C 376.172,436.825 373.839,438.992 374.5,444.5C 375.858,453.841 379.525,454.841 385.5,447.5C 387.608,447.86 389.608,448.527 391.5,449.5C 387.451,458.49 380.784,460.99 371.5,457C 369.622,455.457 368.122,453.624 367,451.5C 363.725,440.712 367.225,433.712 377.5,430.5 Z"/></g>
<g><path style="opacity:0.881" fill="#fcfcfc" d="M 404.5,430.5 C 406.042,431.301 407.708,431.634 409.5,431.5C 409.03,435.97 410.03,436.47 412.5,433C 418.86,429.803 424.693,430.636 430,435.5C 430.973,437.392 431.64,439.392 432,441.5C 435.175,432.33 441.342,429.163 450.5,432C 453,433.167 454.833,435 456,437.5C 457.043,440.757 457.543,444.09 457.5,447.5C 451.794,447.171 446.128,447.505 440.5,448.5C 441.278,450.945 442.945,452.278 445.5,452.5C 447.327,450.949 449.494,449.949 452,449.5C 455.441,448.94 456.774,450.273 456,453.5C 450.704,458.717 444.537,459.884 437.5,457C 434.641,454.448 432.974,451.281 432.5,447.5C 426.794,447.171 421.128,447.505 415.5,448.5C 416.278,450.945 417.945,452.278 420.5,452.5C 422.327,450.949 424.494,449.949 427,449.5C 429.271,449.174 430.771,450.008 431.5,452C 430.179,454.654 428.179,456.654 425.5,458C 411.514,460.015 405.347,453.848 407,439.5C 404.67,437.968 402.67,438.302 401,440.5C 400.501,446.491 400.334,452.491 400.5,458.5C 397.833,458.5 395.167,458.5 392.5,458.5C 392.5,449.5 392.5,440.5 392.5,431.5C 395.394,431.042 397.894,431.709 400,433.5C 401.409,432.219 402.909,431.219 404.5,430.5 Z M 417.5,437.5 C 421.145,436.68 423.478,438.013 424.5,441.5C 421.5,442.833 418.5,442.833 415.5,441.5C 416.18,440.14 416.847,438.807 417.5,437.5 Z M 442.5,437.5 C 446.851,436.533 449.185,438.2 449.5,442.5C 446.428,442.817 443.428,442.484 440.5,441.5C 441.18,440.14 441.847,438.807 442.5,437.5 Z"/></g>
<g><path style="opacity:0.899" fill="#fdfdfd" d="M 473.5,430.5 C 477.577,430.625 480.744,432.292 483,435.5C 483.5,443.159 483.666,450.826 483.5,458.5C 481.167,458.5 478.833,458.5 476.5,458.5C 476.829,451.759 476.329,445.092 475,438.5C 472.408,437.018 470.075,437.352 468,439.5C 467.5,445.825 467.334,452.158 467.5,458.5C 464.833,458.5 462.167,458.5 459.5,458.5C 459.5,449.5 459.5,440.5 459.5,431.5C 462.466,431.11 465.132,431.777 467.5,433.5C 469.444,432.199 471.444,431.199 473.5,430.5 Z"/></g>
<g><path style="opacity:0.928" fill="#fbfbfb" d="M 500.5,430.5 C 508.9,431.254 513.233,435.921 513.5,444.5C 512.451,456.762 506.284,460.762 495,456.5C 494.501,460.152 494.335,463.818 494.5,467.5C 492.167,467.5 489.833,467.5 487.5,467.5C 487.5,455.5 487.5,443.5 487.5,431.5C 490.394,431.042 492.894,431.709 495,433.5C 496.876,432.391 498.709,431.391 500.5,430.5 Z M 497.5,437.5 C 502.848,437.012 505.515,439.512 505.5,445C 505.226,448.739 503.393,451.239 500,452.5C 493.708,448.529 492.875,443.529 497.5,437.5 Z"/></g>
<g><path style="opacity:0.837" fill="#fdfdfd" d="M 526.5,430.5 C 530.768,431.373 535.102,431.706 539.5,431.5C 539.5,440.5 539.5,449.5 539.5,458.5C 536.833,458.5 534.167,458.5 531.5,458.5C 531.666,451.159 531.5,443.826 531,436.5C 530.667,437.5 530.333,438.5 530,439.5C 526.914,437.78 524.581,438.447 523,441.5C 522.501,447.157 522.334,452.824 522.5,458.5C 519.833,458.5 517.167,458.5 514.5,458.5C 514.5,449.5 514.5,440.5 514.5,431.5C 517.394,431.042 519.894,431.709 522,433.5C 523.409,432.219 524.909,431.219 526.5,430.5 Z"/></g>
<g><path style="opacity:0.882" fill="#fbfbfb" d="M 576.5,422.5 C 578.388,424.988 579.055,427.988 578.5,431.5C 580.167,431.5 581.833,431.5 583.5,431.5C 583.5,433.5 583.5,435.5 583.5,437.5C 581.833,437.5 580.167,437.5 578.5,437.5C 578.334,442.179 578.501,446.845 579,451.5C 580.113,452.711 581.28,452.711 582.5,451.5C 583.298,453.078 583.798,454.744 584,456.5C 584.5,448.173 584.666,439.84 584.5,431.5C 587.167,431.5 589.833,431.5 592.5,431.5C 592.5,440.5 592.5,449.5 592.5,458.5C 587.857,458.006 583.357,458.006 579,458.5C 576.7,458.506 574.534,458.006 572.5,457C 571.522,450.59 571.189,444.09 571.5,437.5C 570.167,437.5 568.833,437.5 567.5,437.5C 567.5,444.5 567.5,451.5 567.5,458.5C 564.833,458.5 562.167,458.5 559.5,458.5C 559.666,452.158 559.5,445.825 559,439.5C 555.575,436.588 552.908,437.255 551,441.5C 550.501,447.157 550.334,452.824 550.5,458.5C 547.833,458.5 545.167,458.5 542.5,458.5C 542.5,449.5 542.5,440.5 542.5,431.5C 545.711,431.012 548.544,431.679 551,433.5C 557.357,429.257 562.69,430.257 567,436.5C 567.494,434.866 567.66,433.199 567.5,431.5C 568.833,431.5 570.167,431.5 571.5,431.5C 571.201,429.396 571.534,427.396 572.5,425.5C 574.261,424.965 575.594,423.965 576.5,422.5 Z"/></g>
<g><path style="opacity:0.884" fill="#fcfcfc" d="M 610.5,430.5 C 615.013,430.414 618.18,432.414 620,436.5C 620.5,443.826 620.666,451.159 620.5,458.5C 617.833,458.5 615.167,458.5 612.5,458.5C 612.666,452.158 612.5,445.825 612,439.5C 607.966,436.385 605.299,437.385 604,442.5C 603.501,447.823 603.334,453.156 603.5,458.5C 601.167,458.5 598.833,458.5 596.5,458.5C 596.5,449.5 596.5,440.5 596.5,431.5C 599.394,431.042 601.894,431.709 604,433.5C 606.166,432.269 608.333,431.269 610.5,430.5 Z"/></g>
<g><path style="opacity:0.886" fill="#fbfbfb" d="M 641.5,468.5 C 637.5,468.5 633.5,468.5 629.5,468.5C 624.632,466.763 622.965,463.43 624.5,458.5C 628.716,459.079 632.549,460.412 636,462.5C 640.082,461.841 641.416,459.508 640,455.5C 635.706,459.317 631.206,459.484 626.5,456C 621.733,449.219 621.233,442.052 625,434.5C 630.438,429.411 635.771,429.411 641,434.5C 641.483,433.552 641.649,432.552 641.5,431.5C 643.833,431.5 646.167,431.5 648.5,431.5C 648.666,441.172 648.5,450.839 648,460.5C 647.417,464.572 645.25,467.239 641.5,468.5 Z M 632.5,437.5 C 639.88,437.553 642.38,441.22 640,448.5C 637,452.5 634,452.5 631,448.5C 630.112,444.598 630.612,440.931 632.5,437.5 Z"/></g>
<g><path style="opacity:0.901" fill="#fafafa" d="M 686.5,440.5 C 690.294,432.273 696.627,429.44 705.5,432C 713.042,435.939 715.542,442.105 713,450.5C 708.968,458.037 702.802,460.537 694.5,458C 690.572,456.407 688.072,453.573 687,449.5C 683.55,457.804 677.383,460.638 668.5,458C 661.915,453.532 659.748,447.365 662,439.5C 665.965,431.7 672.132,429.2 680.5,432C 683.846,433.851 685.846,436.684 686.5,440.5 Z M 686.5,440.5 C 686.5,443.167 686.5,445.833 686.5,448.5C 683.873,447.908 681.206,447.575 678.5,447.5C 677.503,452.249 675.003,453.249 671,450.5C 668.856,446.35 669.023,442.35 671.5,438.5C 673.098,437.515 674.765,437.349 676.5,438C 677.56,439.298 678.726,440.465 680,441.5C 682.099,440.713 684.266,440.38 686.5,440.5 Z M 698.5,437.5 C 703.158,437.491 705.491,439.825 705.5,444.5C 705.264,451.525 702.097,453.525 696,450.5C 693.467,445.351 694.3,441.018 698.5,437.5 Z"/></g>
<g><path style="opacity:0.894" fill="#fcfcfc" d="M 729.5,430.5 C 732.55,430.879 735.05,432.212 737,434.5C 741.885,430.174 746.885,429.84 752,433.5C 753.438,441.723 753.938,450.057 753.5,458.5C 751.167,458.5 748.833,458.5 746.5,458.5C 746.666,452.491 746.499,446.491 746,440.5C 743.667,436.5 741.333,436.5 739,440.5C 738.501,446.491 738.334,452.491 738.5,458.5C 735.833,458.5 733.167,458.5 730.5,458.5C 730.666,451.825 730.5,445.158 730,438.5C 727.733,437.065 725.733,437.398 724,439.5C 722.743,445.769 722.243,452.102 722.5,458.5C 720.167,458.5 717.833,458.5 715.5,458.5C 715.5,449.5 715.5,440.5 715.5,431.5C 718.394,431.042 720.894,431.709 723,433.5C 725.166,432.269 727.333,431.269 729.5,430.5 Z"/></g>
<g><path style="opacity:0.833" fill="#fefefe" d="M 200.5,450.5 C 202.833,450.5 205.167,450.5 207.5,450.5C 207.5,453.167 207.5,455.833 207.5,458.5C 205.167,458.5 202.833,458.5 200.5,458.5C 200.5,455.833 200.5,453.167 200.5,450.5 Z"/></g>
<g><path style="opacity:0.739" fill="#fdfdfd" d="M 651.5,450.5 C 654.167,450.5 656.833,450.5 659.5,450.5C 659.5,453.167 659.5,455.833 659.5,458.5C 656.833,458.5 654.167,458.5 651.5,458.5C 651.5,455.833 651.5,453.167 651.5,450.5 Z"/></g>
</svg>
